<svg id="svg" version="1.1" xmlns="http://www.w3.org/2000/svg" xmlns:xlink="http://www.w3.org/1999/xlink" width="400" height="400" viewBox="0, 0, 400,400"><g id="svgg"><path id="path0" d="M290.100 4.999 C 289.110 5.086,287.466 5.167,286.447 5.179 C 284.772 5.198,283.928 5.395,283.590 5.846 C 283.530 5.927,282.563 6.053,281.440 6.126 C 280.318 6.200,279.400 6.325,279.400 6.404 C 279.400 6.551,278.890 6.658,276.583 6.996 C 275.859 7.102,275.004 7.326,274.683 7.493 C 274.363 7.661,273.865 7.798,273.578 7.799 C 272.476 7.801,271.200 8.064,271.200 8.289 C 271.200 8.425,270.419 8.682,269.350 8.899 C 268.332 9.105,267.381 9.392,267.236 9.537 C 267.090 9.682,266.586 9.800,266.116 9.800 C 265.164 9.800,264.000 10.141,264.000 10.420 C 264.000 10.519,263.820 10.600,263.600 10.600 C 263.380 10.600,263.200 10.690,263.200 10.800 C 263.200 10.910,263.064 11.000,262.897 11.000 C 262.412 11.000,261.000 11.483,261.000 11.649 C 261.000 11.732,260.657 11.800,260.238 11.800 C 259.819 11.800,259.302 11.932,259.088 12.094 C 258.875 12.255,258.551 12.390,258.368 12.394 C 257.990 12.401,255.934 13.418,255.833 13.648 C 255.797 13.732,255.554 13.800,255.295 13.800 C 255.036 13.800,254.773 13.882,254.711 13.983 C 254.649 14.083,254.238 14.226,253.799 14.300 C 253.360 14.374,253.000 14.497,253.000 14.573 C 253.000 14.649,252.460 14.872,251.800 15.068 C 251.140 15.264,250.599 15.486,250.598 15.562 C 250.596 15.638,250.214 15.879,249.748 16.097 C 249.281 16.315,248.830 16.604,248.745 16.739 C 248.659 16.874,248.254 17.045,247.845 17.120 C 247.020 17.272,245.013 18.265,244.699 18.678 C 244.589 18.823,244.274 19.012,243.999 19.097 C 243.725 19.183,243.275 19.409,243.000 19.601 C 242.725 19.793,242.072 20.143,241.550 20.380 C 241.028 20.616,240.600 20.898,240.600 21.005 C 240.600 21.112,240.437 21.200,240.238 21.200 C 240.038 21.200,239.701 21.360,239.488 21.557 C 239.136 21.880,237.789 22.600,237.535 22.600 C 237.478 22.600,237.161 22.870,236.831 23.200 C 236.501 23.530,236.089 23.800,235.915 23.800 C 235.742 23.800,235.600 23.881,235.600 23.980 C 235.600 24.080,235.347 24.249,235.038 24.357 C 234.729 24.465,234.344 24.684,234.184 24.845 C 234.023 25.005,233.691 25.244,233.446 25.375 C 233.201 25.507,233.000 25.736,233.000 25.885 C 233.000 26.035,232.777 26.213,232.504 26.281 C 232.231 26.350,231.734 26.673,231.400 27.000 C 231.066 27.327,230.569 27.650,230.296 27.719 C 230.023 27.787,229.800 27.924,229.800 28.022 C 229.800 28.120,229.665 28.200,229.500 28.200 C 229.335 28.200,229.200 28.279,229.200 28.376 C 229.200 28.687,227.936 29.800,227.583 29.800 C 227.396 29.800,227.191 29.935,227.128 30.100 C 227.064 30.265,226.877 30.400,226.711 30.400 C 226.546 30.400,226.274 30.664,226.107 30.986 C 225.941 31.308,225.602 31.636,225.355 31.714 C 224.808 31.888,223.600 32.997,223.600 33.324 C 223.600 33.454,223.348 33.649,223.041 33.756 C 222.733 33.863,222.023 34.412,221.463 34.975 C 220.902 35.539,220.398 36.000,220.343 36.000 C 220.187 36.000,219.000 37.144,219.000 37.295 C 219.000 37.507,218.450 38.000,218.214 38.000 C 218.096 38.000,218.000 38.135,218.000 38.300 C 218.000 38.465,217.919 38.600,217.820 38.600 C 217.721 38.600,217.204 39.045,216.670 39.590 C 216.137 40.134,215.585 40.696,215.444 40.840 C 215.304 40.983,214.696 41.580,214.094 42.168 C 213.492 42.755,213.000 43.362,213.000 43.518 C 213.000 43.673,212.921 43.800,212.825 43.800 C 212.610 43.800,211.329 45.114,208.950 47.775 C 208.538 48.236,208.200 48.739,208.200 48.893 C 208.200 49.047,208.015 49.232,207.789 49.304 C 207.562 49.375,207.294 49.652,207.193 49.917 C 207.093 50.183,206.932 50.400,206.837 50.400 C 206.742 50.400,206.492 50.754,206.282 51.186 C 206.072 51.619,205.651 52.119,205.348 52.299 C 205.044 52.479,204.614 52.980,204.393 53.413 C 204.173 53.846,203.923 54.200,203.839 54.200 C 203.755 54.200,203.527 54.470,203.332 54.800 C 203.137 55.130,202.847 55.400,202.689 55.400 C 202.530 55.400,202.399 55.558,202.398 55.750 C 202.397 55.942,202.082 56.495,201.698 56.978 C 201.314 57.461,201.000 58.022,201.000 58.224 C 201.000 58.450,200.807 58.641,200.500 58.718 C 200.225 58.787,200.000 58.955,200.000 59.091 C 200.000 59.227,199.818 59.549,199.595 59.806 C 199.372 60.063,199.134 60.505,199.066 60.787 C 198.947 61.284,198.770 61.533,197.879 62.461 C 197.647 62.703,197.297 63.215,197.101 63.600 C 196.905 63.985,196.680 64.345,196.602 64.400 C 196.523 64.455,196.301 64.838,196.107 65.250 C 195.913 65.663,195.675 66.000,195.577 66.000 C 195.480 66.000,195.400 66.180,195.400 66.400 C 195.400 66.620,195.310 66.800,195.200 66.800 C 195.090 66.800,195.000 66.934,195.000 67.098 C 195.000 67.262,194.820 67.509,194.600 67.646 C 194.380 67.784,194.200 68.002,194.200 68.132 C 194.200 68.476,193.542 69.673,193.250 69.860 C 193.113 69.948,193.000 70.150,193.000 70.310 C 193.000 70.469,192.910 70.600,192.800 70.600 C 192.690 70.600,192.600 70.694,192.600 70.808 C 192.600 70.923,192.420 71.210,192.200 71.446 C 191.980 71.682,191.800 72.025,191.800 72.207 C 191.800 72.390,191.636 72.728,191.435 72.959 C 191.235 73.190,190.953 73.737,190.809 74.173 C 190.665 74.610,190.391 75.008,190.200 75.058 C 189.964 75.120,189.810 75.439,189.717 76.057 C 189.642 76.556,189.468 77.008,189.329 77.061 C 189.191 77.114,188.956 77.527,188.807 77.979 C 188.658 78.430,188.481 78.800,188.414 78.800 C 188.347 78.800,188.069 79.228,187.796 79.750 C 187.523 80.273,187.248 80.745,187.184 80.800 C 187.120 80.855,186.899 81.373,186.694 81.950 C 186.489 82.527,186.249 83.000,186.160 83.000 C 186.072 83.000,186.000 83.220,186.000 83.490 C 186.000 83.759,185.769 84.229,185.486 84.534 C 185.204 84.839,184.922 85.340,184.860 85.648 C 184.799 85.956,184.670 86.257,184.574 86.316 C 184.478 86.375,184.400 86.598,184.400 86.812 C 184.400 87.025,184.323 87.200,184.230 87.200 C 184.136 87.200,183.901 87.785,183.707 88.500 C 183.514 89.215,183.298 89.800,183.227 89.800 C 183.156 89.800,182.974 90.093,182.824 90.450 C 182.673 90.808,182.338 91.550,182.079 92.100 C 181.820 92.650,181.512 93.483,181.396 93.950 C 181.280 94.418,181.104 94.800,181.005 94.800 C 180.906 94.800,180.764 95.205,180.690 95.700 C 180.615 96.195,180.475 96.600,180.377 96.600 C 180.280 96.600,180.200 96.780,180.200 97.000 C 180.200 97.220,180.112 97.400,180.004 97.400 C 179.896 97.400,179.754 97.648,179.688 97.950 C 179.524 98.697,179.153 99.678,178.986 99.800 C 178.861 99.892,178.522 101.133,178.263 102.450 C 178.203 102.753,178.075 103.000,177.977 103.000 C 177.880 103.000,177.800 103.225,177.800 103.500 C 177.800 103.775,177.712 104.000,177.604 104.000 C 177.496 104.000,177.351 104.225,177.282 104.500 C 177.213 104.775,177.076 105.000,176.978 105.000 C 176.880 105.000,176.800 105.349,176.800 105.775 C 176.800 106.201,176.665 106.932,176.500 107.400 C 176.335 107.868,176.200 108.464,176.200 108.725 C 176.200 108.986,176.128 109.200,176.040 109.200 C 175.853 109.200,175.400 110.377,175.400 110.864 C 175.400 111.049,175.310 111.200,175.200 111.200 C 175.090 111.200,175.000 111.497,175.000 111.860 C 175.000 112.223,174.925 112.605,174.834 112.710 C 174.610 112.966,174.259 114.276,174.086 115.500 C 174.008 116.050,173.865 116.552,173.767 116.615 C 173.632 116.703,173.027 120.378,173.004 121.250 C 173.002 121.333,172.875 121.400,172.721 121.400 C 172.325 121.400,172.254 121.688,172.092 123.969 C 172.013 125.086,171.870 126.000,171.774 126.000 C 171.678 126.000,171.600 126.309,171.600 126.686 C 171.600 128.177,173.100 128.081,152.292 127.927 C 130.402 127.765,128.798 127.811,128.326 128.610 C 127.847 129.420,127.838 138.879,128.315 139.560 L 128.629 140.010 147.373 139.995 C 166.773 139.980,166.702 139.978,166.911 140.635 C 167.078 141.162,166.792 147.472,166.595 147.600 C 166.415 147.717,166.079 150.436,165.885 153.350 C 165.810 154.478,165.670 155.400,165.574 155.400 C 165.478 155.400,165.400 155.670,165.400 156.000 C 165.400 156.330,165.315 156.600,165.212 156.600 C 165.109 156.600,164.962 157.230,164.886 158.000 C 164.810 158.770,164.681 159.400,164.599 159.400 C 164.453 159.400,164.142 161.275,163.886 163.700 C 163.816 164.360,163.669 164.956,163.558 165.025 C 163.447 165.094,163.261 165.949,163.144 166.925 C 162.995 168.174,162.827 168.793,162.578 169.013 C 162.361 169.205,162.176 169.749,162.101 170.413 C 161.937 171.864,161.589 173.200,161.374 173.200 C 161.278 173.200,161.200 173.538,161.201 173.950 C 161.202 175.032,160.552 178.074,160.284 178.244 C 160.158 178.324,159.935 179.066,159.788 179.894 C 159.641 180.722,159.458 181.400,159.381 181.400 C 159.305 181.400,159.197 181.738,159.141 182.150 C 158.922 183.783,158.510 185.600,158.359 185.600 C 158.272 185.600,158.200 185.808,158.200 186.062 C 158.200 186.316,158.068 186.698,157.906 186.912 C 157.745 187.125,157.610 187.620,157.606 188.010 C 157.603 188.400,157.517 188.805,157.416 188.910 C 157.220 189.112,156.725 191.398,156.498 193.150 C 156.424 193.728,156.292 194.200,156.205 194.200 C 156.119 194.200,155.953 194.841,155.837 195.623 C 155.708 196.494,155.478 197.212,155.245 197.473 C 155.003 197.745,154.779 198.477,154.629 199.490 C 154.499 200.365,154.309 201.132,154.208 201.195 C 154.106 201.258,153.922 202.118,153.800 203.105 C 153.678 204.092,153.448 205.161,153.289 205.481 C 153.130 205.800,153.000 206.312,153.000 206.619 C 153.000 206.926,152.918 207.227,152.817 207.289 C 152.717 207.351,152.574 207.762,152.500 208.201 C 152.426 208.640,152.293 209.000,152.205 209.000 C 152.117 209.000,151.986 209.428,151.914 209.950 C 151.720 211.355,151.381 213.045,151.201 213.500 C 150.951 214.133,150.400 217.046,150.400 217.733 C 150.400 218.078,150.277 218.404,150.125 218.463 C 149.974 218.521,149.798 218.823,149.734 219.134 C 149.276 221.370,149.125 221.959,148.898 222.400 C 148.756 222.675,148.542 223.710,148.421 224.700 C 148.301 225.689,148.112 226.529,148.001 226.566 C 147.891 226.603,147.800 226.761,147.800 226.917 C 147.800 227.072,147.723 227.200,147.628 227.200 C 147.534 227.200,147.399 227.757,147.328 228.439 C 147.256 229.120,147.106 229.734,146.994 229.804 C 146.881 229.873,146.647 230.824,146.473 231.915 C 146.299 233.007,146.087 233.945,146.001 234.000 C 145.915 234.055,145.742 234.761,145.617 235.569 C 145.493 236.377,145.258 237.171,145.096 237.333 C 144.768 237.661,144.762 237.684,144.286 240.500 C 144.101 241.600,143.890 242.545,143.819 242.600 C 143.671 242.714,143.224 244.684,143.059 245.950 C 142.995 246.438,142.841 246.800,142.698 246.800 C 142.540 246.800,142.352 247.391,142.188 248.400 C 142.045 249.280,141.864 250.000,141.785 250.000 C 141.635 250.000,141.557 250.409,141.173 253.250 C 141.042 254.212,140.868 255.000,140.785 255.000 C 140.703 255.000,140.574 255.360,140.500 255.800 C 140.426 256.240,140.283 256.600,140.182 256.600 C 140.082 256.600,140.000 256.825,140.000 257.100 C 140.000 257.375,139.927 257.600,139.838 257.600 C 139.617 257.600,139.245 259.208,139.085 260.850 C 139.013 261.593,138.885 262.200,138.800 262.200 C 138.616 262.200,138.200 263.778,138.200 264.481 C 138.200 264.758,138.020 265.152,137.799 265.358 C 137.509 265.628,137.345 266.165,137.201 267.315 C 136.945 269.371,136.805 270.000,136.606 270.000 C 136.517 270.000,136.348 270.562,136.230 271.250 C 135.858 273.414,135.759 273.800,135.577 273.800 C 135.480 273.800,135.400 274.160,135.400 274.600 C 135.400 275.040,135.317 275.400,135.216 275.400 C 135.115 275.400,134.972 275.670,134.900 276.000 C 134.828 276.330,134.707 276.600,134.631 276.600 C 134.556 276.600,134.318 277.372,134.102 278.316 C 133.886 279.260,133.640 280.075,133.555 280.128 C 133.470 280.181,133.400 280.459,133.400 280.748 C 133.400 281.283,133.090 282.425,132.775 283.047 C 132.679 283.238,132.600 283.526,132.600 283.686 C 132.600 283.846,132.429 284.275,132.221 284.639 C 132.012 285.002,131.781 285.818,131.707 286.450 C 131.632 287.083,131.492 287.600,131.396 287.600 C 131.299 287.600,131.111 288.155,130.978 288.832 C 130.844 289.510,130.568 290.232,130.363 290.437 C 130.159 290.641,129.937 291.234,129.872 291.754 C 129.806 292.274,129.642 292.880,129.508 293.100 C 129.373 293.320,129.102 294.018,128.904 294.650 C 128.707 295.283,128.478 295.800,128.396 295.800 C 128.313 295.800,128.182 296.309,128.105 296.932 C 127.972 297.995,127.696 298.754,127.349 299.013 C 127.266 299.074,127.059 299.657,126.890 300.306 C 126.721 300.956,126.516 301.535,126.435 301.594 C 126.353 301.652,126.133 302.355,125.945 303.155 C 125.757 303.955,125.445 304.851,125.252 305.146 C 124.846 305.764,124.407 306.948,124.403 307.433 C 124.401 307.617,124.312 307.797,124.204 307.833 C 124.096 307.870,123.855 308.530,123.668 309.300 C 123.481 310.070,123.266 310.745,123.191 310.800 C 123.116 310.855,122.991 311.103,122.913 311.350 C 122.836 311.597,122.689 311.800,122.587 311.800 C 122.484 311.800,122.400 311.980,122.400 312.200 C 122.400 312.420,122.323 312.600,122.230 312.600 C 122.136 312.600,121.902 313.269,121.710 314.086 C 121.517 314.904,121.243 315.617,121.101 315.672 C 120.958 315.727,120.778 316.229,120.702 316.789 C 120.607 317.477,120.441 317.871,120.189 318.006 C 119.985 318.115,119.760 318.511,119.690 318.885 C 119.619 319.259,119.391 319.749,119.181 319.974 C 118.971 320.199,118.800 320.545,118.801 320.742 C 118.802 321.207,118.145 323.080,117.950 323.167 C 117.868 323.203,117.800 323.406,117.800 323.617 C 117.800 323.828,117.712 324.000,117.604 324.000 C 117.496 324.000,117.351 324.225,117.282 324.500 C 117.213 324.775,117.093 325.000,117.016 325.000 C 116.939 325.000,116.760 325.453,116.618 326.006 C 116.476 326.559,116.256 327.121,116.128 327.256 C 115.793 327.608,115.400 328.554,115.400 329.009 C 115.400 329.224,115.317 329.400,115.215 329.400 C 114.947 329.400,114.459 330.459,114.304 331.378 C 114.230 331.813,114.054 332.213,113.912 332.268 C 113.770 332.322,113.529 332.793,113.377 333.314 C 113.209 333.890,112.963 334.298,112.750 334.354 C 112.557 334.405,112.400 334.604,112.400 334.796 C 112.400 334.989,112.226 335.368,112.012 335.639 C 111.799 335.910,111.565 336.394,111.492 336.716 C 111.302 337.550,110.928 338.400,110.751 338.400 C 110.668 338.400,110.600 338.576,110.600 338.790 C 110.600 339.005,110.482 339.252,110.338 339.340 C 109.913 339.599,109.400 340.456,109.400 340.907 C 109.400 341.137,109.240 341.499,109.043 341.712 C 108.716 342.068,108.000 343.412,108.000 343.670 C 108.000 343.730,107.775 344.022,107.500 344.319 C 107.225 344.616,107.000 344.974,107.000 345.115 C 107.000 345.256,106.885 345.490,106.744 345.636 C 106.603 345.781,106.360 346.294,106.204 346.775 C 106.047 347.256,105.668 347.902,105.360 348.209 C 105.052 348.517,104.800 348.866,104.800 348.985 C 104.800 349.103,104.733 349.201,104.650 349.202 C 104.477 349.203,104.000 350.167,104.000 350.515 C 104.000 350.645,103.880 350.851,103.733 350.973 C 103.586 351.095,103.350 351.546,103.208 351.977 C 103.052 352.447,102.760 352.845,102.475 352.975 C 102.209 353.096,102.000 353.365,102.000 353.586 C 102.000 353.803,101.888 354.052,101.750 354.140 C 101.386 354.373,100.600 355.911,100.600 356.390 C 100.600 356.617,100.469 356.800,100.307 356.800 C 100.146 356.800,99.909 356.997,99.780 357.237 C 99.651 357.478,99.378 357.855,99.173 358.075 C 98.968 358.295,98.800 358.594,98.800 358.740 C 98.800 358.885,98.620 359.158,98.400 359.346 C 98.180 359.535,98.000 359.788,98.000 359.908 C 98.000 360.029,97.730 360.430,97.400 360.800 C 97.070 361.170,96.800 361.580,96.800 361.713 C 96.800 361.846,96.575 362.101,96.300 362.282 C 96.025 362.462,95.799 362.720,95.797 362.855 C 95.795 362.990,95.428 363.505,94.982 364.000 C 94.535 364.495,94.031 365.215,93.862 365.600 C 93.589 366.223,92.514 367.398,92.214 367.401 C 92.054 367.403,91.400 368.582,91.400 368.868 C 91.400 368.998,91.220 369.216,91.000 369.354 C 90.780 369.491,90.600 369.740,90.600 369.907 C 90.600 370.073,90.373 370.296,90.095 370.402 C 89.817 370.508,89.529 370.753,89.456 370.947 C 89.382 371.141,89.114 371.464,88.861 371.665 C 88.607 371.865,88.400 372.154,88.400 372.307 C 88.400 372.461,88.216 372.685,87.990 372.805 C 87.765 372.926,87.497 373.244,87.395 373.512 C 87.293 373.780,87.079 374.000,86.918 374.000 C 86.758 374.000,86.570 374.180,86.500 374.400 C 86.430 374.620,86.265 374.800,86.134 374.800 C 86.002 374.800,85.806 375.003,85.697 375.250 C 85.589 375.498,85.298 375.729,85.050 375.764 C 84.778 375.802,84.600 375.967,84.600 376.179 C 84.600 376.372,84.264 376.794,83.853 377.115 C 83.443 377.437,82.615 378.195,82.015 378.800 C 80.933 379.889,80.541 380.185,79.631 380.594 C 79.373 380.710,79.115 380.984,79.057 381.202 C 79.000 381.421,78.864 381.600,78.755 381.600 C 78.647 381.600,78.230 381.858,77.829 382.173 C 77.428 382.489,76.898 382.810,76.651 382.886 C 76.404 382.963,76.089 383.136,75.951 383.271 C 75.661 383.555,73.902 384.400,73.602 384.400 C 73.491 384.400,73.400 384.488,73.400 384.596 C 73.400 384.704,73.153 384.846,72.850 384.912 C 72.211 385.050,71.349 385.433,71.188 385.649 C 71.127 385.732,70.115 385.858,68.938 385.930 C 67.762 386.002,66.800 386.137,66.800 386.230 C 66.800 386.324,66.305 386.400,65.700 386.400 C 65.095 386.400,64.600 386.323,64.600 386.230 C 64.600 386.136,63.813 386.006,62.850 385.941 C 61.688 385.863,60.817 385.685,60.260 385.412 C 59.797 385.185,59.277 385.000,59.103 385.000 C 58.930 385.000,58.740 384.875,58.681 384.722 C 58.622 384.570,58.178 384.334,57.693 384.198 C 57.150 384.046,56.766 383.807,56.692 383.576 C 56.627 383.369,56.454 383.200,56.309 383.200 C 55.167 383.200,53.200 380.069,53.200 378.251 C 53.200 377.456,53.771 375.600,54.015 375.600 C 54.108 375.600,54.345 375.437,54.542 375.237 C 54.739 375.038,55.292 374.750,55.771 374.598 C 56.250 374.446,56.686 374.209,56.739 374.072 C 56.791 373.934,57.322 373.720,57.917 373.596 C 58.513 373.473,59.000 373.306,59.000 373.226 C 59.000 373.017,60.234 372.600,60.850 372.600 C 61.137 372.600,61.495 372.476,61.647 372.324 C 61.799 372.173,62.210 371.986,62.561 371.908 C 62.913 371.831,63.200 371.685,63.200 371.584 C 63.200 371.483,63.380 371.400,63.600 371.400 C 63.820 371.400,64.000 371.324,64.000 371.230 C 64.000 371.137,64.450 370.915,65.001 370.738 C 65.551 370.560,66.114 370.320,66.251 370.205 C 67.246 369.367,68.340 368.604,68.548 368.602 C 68.685 368.601,68.909 368.420,69.046 368.200 C 69.184 367.980,69.387 367.800,69.498 367.799 C 69.865 367.797,72.200 365.404,72.200 365.029 C 72.200 364.898,72.425 364.689,72.700 364.564 C 72.975 364.438,73.200 364.273,73.200 364.197 C 73.200 364.074,73.422 363.791,74.472 362.573 C 74.627 362.393,74.868 361.898,75.007 361.473 C 75.147 361.048,75.405 360.564,75.580 360.398 C 76.000 360.001,76.400 359.279,76.400 358.917 C 76.400 358.758,76.513 358.508,76.650 358.361 C 77.093 357.885,77.600 356.850,77.600 356.419 C 77.600 356.189,77.713 356.000,77.851 356.000 C 78.199 356.000,78.600 354.609,78.600 353.403 C 78.600 352.851,78.680 352.400,78.778 352.400 C 79.535 352.400,79.916 340.534,79.267 337.150 C 79.083 336.188,78.857 335.400,78.766 335.400 C 78.675 335.400,78.599 335.197,78.599 334.950 C 78.597 334.158,78.190 333.000,77.914 333.000 C 77.767 333.000,77.597 332.842,77.536 332.650 C 77.005 330.961,76.050 329.248,75.550 329.086 C 75.358 329.024,75.200 328.856,75.200 328.714 C 75.200 328.572,74.953 328.142,74.650 327.758 C 74.348 327.375,73.884 326.778,73.620 326.431 C 73.356 326.084,72.995 325.800,72.818 325.800 C 72.641 325.800,72.384 325.620,72.246 325.400 C 72.109 325.180,71.866 325.000,71.705 325.000 C 71.545 325.000,71.318 324.820,71.200 324.600 C 71.082 324.380,70.807 324.200,70.589 324.200 C 70.363 324.200,70.097 323.992,69.972 323.718 C 69.829 323.404,69.523 323.193,69.096 323.112 C 68.735 323.045,68.342 322.871,68.221 322.725 C 68.100 322.580,67.596 322.294,67.101 322.089 C 66.605 321.885,66.200 321.646,66.200 321.559 C 66.200 321.472,65.930 321.400,65.600 321.400 C 65.270 321.400,65.000 321.313,65.000 321.208 C 65.000 321.102,64.618 320.918,64.150 320.799 C 63.327 320.590,62.681 320.348,61.947 319.973 C 61.753 319.874,61.033 319.736,60.347 319.666 C 59.661 319.596,59.044 319.453,58.975 319.348 C 58.906 319.243,58.433 319.110,57.925 319.052 C 57.416 318.995,57.000 318.870,57.000 318.774 C 57.000 318.678,56.613 318.600,56.140 318.600 C 55.667 318.600,55.167 318.488,55.030 318.350 C 54.845 318.166,53.668 318.100,50.556 318.100 C 47.356 318.100,46.313 318.161,46.250 318.350 C 46.200 318.499,45.815 318.600,45.295 318.600 C 44.816 318.600,44.368 318.690,44.300 318.800 C 44.232 318.910,44.008 319.000,43.802 319.000 C 43.597 319.000,43.294 319.135,43.129 319.300 C 42.964 319.465,42.665 319.600,42.464 319.599 C 41.949 319.598,40.200 320.247,40.200 320.440 C 40.200 320.528,39.966 320.600,39.681 320.600 C 39.199 320.600,37.985 321.285,37.833 321.643 C 37.797 321.729,37.653 321.800,37.514 321.800 C 37.138 321.800,35.994 322.406,35.571 322.829 C 35.367 323.033,35.121 323.200,35.025 323.200 C 34.929 323.200,34.457 323.565,33.975 324.011 C 33.494 324.457,32.807 324.948,32.450 325.101 C 32.092 325.254,31.800 325.452,31.800 325.540 C 31.799 325.871,30.679 326.984,30.145 327.185 C 29.840 327.300,29.529 327.553,29.455 327.747 C 29.213 328.380,27.963 329.753,27.133 330.297 C 26.840 330.489,26.600 330.793,26.600 330.973 C 26.600 331.278,26.400 331.555,25.070 333.096 C 24.787 333.424,24.477 333.897,24.382 334.146 C 24.288 334.396,24.124 334.600,24.020 334.600 C 23.802 334.600,23.200 335.725,23.200 336.131 C 23.200 336.279,23.110 336.400,23.000 336.400 C 22.890 336.400,22.800 336.530,22.800 336.690 C 22.800 336.849,22.569 337.229,22.286 337.534 C 22.004 337.839,21.722 338.340,21.660 338.648 C 21.599 338.956,21.470 339.257,21.374 339.316 C 21.278 339.375,21.200 339.605,21.200 339.826 C 21.200 340.047,21.070 340.358,20.912 340.517 C 20.753 340.675,20.563 341.209,20.489 341.702 C 20.415 342.196,20.275 342.600,20.177 342.600 C 20.080 342.600,20.000 342.750,20.000 342.934 C 20.000 343.118,19.859 343.425,19.686 343.615 C 19.484 343.839,19.311 344.618,19.199 345.811 C 19.091 346.958,18.926 347.722,18.763 347.823 C 18.374 348.064,18.377 361.939,18.766 362.179 C 18.936 362.284,19.091 363.030,19.196 364.248 C 19.340 365.934,19.587 366.853,20.217 368.047 C 20.318 368.238,20.400 368.547,20.400 368.733 C 20.400 369.102,20.833 370.439,21.004 370.600 C 21.063 370.655,21.271 371.218,21.466 371.850 C 21.661 372.483,21.896 373.000,21.988 373.000 C 22.080 373.000,22.215 373.317,22.288 373.704 C 22.360 374.092,22.595 374.519,22.810 374.653 C 23.024 374.787,23.200 375.015,23.200 375.161 C 23.200 375.752,23.895 377.517,24.220 377.750 C 24.412 377.888,24.625 378.259,24.695 378.575 C 24.764 378.891,25.041 379.357,25.310 379.610 C 25.580 379.863,25.800 380.144,25.800 380.235 C 25.800 380.326,25.980 380.580,26.200 380.800 C 26.420 381.020,26.600 381.347,26.600 381.527 C 26.600 381.865,27.276 382.578,28.118 383.130 C 28.383 383.304,28.600 383.598,28.600 383.784 C 28.600 384.138,29.780 385.400,30.111 385.400 C 30.217 385.400,30.416 385.580,30.554 385.800 C 30.691 386.020,30.915 386.201,31.052 386.201 C 31.188 386.202,31.453 386.472,31.641 386.801 C 31.845 387.160,32.145 387.400,32.391 387.400 C 32.616 387.400,32.800 387.492,32.800 387.605 C 32.800 387.718,33.020 387.894,33.290 387.996 C 33.559 388.098,33.929 388.411,34.113 388.691 C 34.296 388.971,34.616 389.200,34.823 389.200 C 35.030 389.200,35.367 389.367,35.571 389.571 C 36.002 390.002,37.141 390.600,37.531 390.600 C 37.679 390.600,37.800 390.690,37.800 390.800 C 37.800 390.910,37.974 391.000,38.186 391.000 C 38.398 391.000,38.690 391.118,38.836 391.263 C 39.188 391.613,41.293 392.600,41.688 392.600 C 41.859 392.600,42.000 392.690,42.000 392.800 C 42.000 392.910,42.228 393.000,42.506 393.000 C 42.785 393.000,43.336 393.135,43.731 393.300 C 44.126 393.465,44.663 393.600,44.924 393.600 C 45.186 393.600,45.400 393.688,45.400 393.795 C 45.400 394.164,46.503 394.545,47.900 394.659 C 48.670 394.722,49.570 394.905,49.900 395.066 C 50.230 395.226,51.693 395.469,53.150 395.604 C 54.608 395.739,55.800 395.929,55.800 396.025 C 55.800 396.121,56.277 396.200,56.860 396.200 C 57.443 396.200,58.010 396.290,58.120 396.400 C 58.430 396.710,69.810 396.865,73.100 396.605 C 74.640 396.483,76.508 396.335,77.250 396.275 C 77.993 396.216,78.600 396.098,78.600 396.013 C 78.600 395.928,79.567 395.753,80.750 395.624 C 84.220 395.245,84.600 395.184,84.600 395.006 C 84.600 394.912,85.388 394.779,86.350 394.710 C 87.985 394.593,89.400 394.156,89.400 393.769 C 89.400 393.676,89.614 393.600,89.876 393.600 C 90.299 393.600,91.069 393.348,92.300 392.806 C 92.520 392.709,92.925 392.583,93.200 392.525 C 94.480 392.256,95.647 391.849,95.996 391.550 C 96.206 391.370,96.699 391.162,97.089 391.089 C 97.480 391.015,97.800 390.883,97.800 390.794 C 97.800 390.706,98.228 390.473,98.750 390.277 C 99.273 390.081,99.770 389.808,99.855 389.669 C 99.941 389.530,100.323 389.357,100.705 389.286 C 101.087 389.214,101.400 389.041,101.400 388.902 C 101.400 388.763,101.692 388.536,102.050 388.398 C 103.012 388.026,106.059 386.551,106.364 386.309 C 106.510 386.194,106.794 385.951,106.996 385.768 C 107.199 385.585,107.683 385.284,108.073 385.100 C 108.462 384.915,109.015 384.547,109.301 384.282 C 109.587 384.017,109.906 383.800,110.010 383.800 C 110.115 383.800,110.200 383.710,110.200 383.600 C 110.200 383.490,110.370 383.400,110.578 383.400 C 110.786 383.400,111.392 383.040,111.925 382.600 C 112.457 382.160,113.052 381.800,113.246 381.800 C 113.441 381.800,113.600 381.687,113.600 381.549 C 113.600 381.411,113.860 381.183,114.177 381.042 C 114.494 380.902,114.958 380.610,115.208 380.393 C 115.457 380.177,115.788 380.000,115.944 380.000 C 116.228 380.000,117.600 378.672,117.600 378.397 C 117.600 378.316,117.848 378.199,118.150 378.136 C 118.453 378.074,118.982 377.770,119.328 377.461 C 120.019 376.843,121.173 375.858,122.100 375.095 C 122.430 374.823,122.806 374.600,122.936 374.600 C 123.066 374.600,123.365 374.330,123.600 374.000 C 123.835 373.670,124.121 373.400,124.235 373.400 C 124.349 373.400,124.619 373.175,124.836 372.900 C 125.052 372.625,125.357 372.400,125.515 372.400 C 125.843 372.400,126.468 371.820,126.792 371.215 C 126.914 370.987,127.135 370.800,127.282 370.800 C 127.429 370.800,128.163 370.237,128.913 369.550 C 129.663 368.863,130.707 367.908,131.232 367.429 C 131.757 366.950,132.241 366.387,132.307 366.179 C 132.373 365.971,132.601 365.800,132.813 365.800 C 133.026 365.800,133.200 365.710,133.200 365.600 C 133.200 365.490,133.313 365.398,133.450 365.396 C 133.588 365.393,133.970 365.066,134.300 364.668 C 135.007 363.816,135.231 363.592,136.576 362.400 C 137.135 361.905,137.596 361.410,137.601 361.300 C 137.607 361.190,137.920 360.875,138.298 360.600 C 138.676 360.325,139.275 359.718,139.628 359.252 C 139.982 358.786,140.436 358.352,140.638 358.288 C 140.839 358.224,141.131 357.931,141.286 357.636 C 141.588 357.061,142.408 356.165,143.759 354.933 C 144.222 354.511,144.656 353.948,144.722 353.683 C 144.789 353.417,144.901 353.200,144.972 353.199 C 145.247 353.198,146.800 351.735,146.800 351.477 C 146.800 351.178,147.949 350.000,148.240 350.000 C 148.339 350.000,148.515 349.730,148.630 349.400 C 148.745 349.070,148.915 348.800,149.007 348.800 C 149.099 348.800,149.376 348.441,149.623 348.002 C 149.869 347.563,150.235 347.152,150.436 347.089 C 150.636 347.025,150.800 346.829,150.800 346.653 C 150.800 346.326,150.859 346.247,152.087 344.943 C 152.479 344.527,152.800 344.100,152.800 343.993 C 152.800 343.887,152.929 343.800,153.087 343.800 C 153.244 343.800,153.434 343.597,153.509 343.350 C 153.584 343.103,153.850 342.675,154.100 342.400 C 154.350 342.125,154.617 341.697,154.692 341.448 C 154.767 341.199,155.092 340.859,155.414 340.693 C 155.736 340.526,156.000 340.260,156.000 340.102 C 156.000 339.944,156.180 339.718,156.400 339.600 C 156.620 339.482,156.800 339.253,156.800 339.090 C 156.800 338.607,157.165 338.055,158.350 336.742 C 158.597 336.468,158.800 336.166,158.800 336.072 C 158.801 335.977,159.073 335.585,159.405 335.200 C 159.738 334.815,160.062 334.298,160.127 334.050 C 160.191 333.803,160.367 333.600,160.518 333.600 C 160.669 333.600,160.849 333.373,160.919 333.095 C 160.989 332.818,161.193 332.480,161.373 332.345 C 161.553 332.210,161.880 331.740,162.100 331.300 C 162.319 330.860,162.626 330.367,162.782 330.203 C 163.165 329.801,164.400 327.859,164.400 327.658 C 164.400 327.569,164.580 327.384,164.800 327.246 C 165.020 327.109,165.200 326.867,165.200 326.709 C 165.200 326.550,165.427 326.175,165.705 325.876 C 165.982 325.576,166.266 325.099,166.335 324.816 C 166.404 324.532,166.627 324.085,166.830 323.823 C 167.034 323.561,167.200 323.237,167.200 323.103 C 167.200 322.969,167.470 322.577,167.800 322.231 C 168.130 321.886,168.400 321.472,168.400 321.312 C 168.400 321.151,168.513 320.948,168.650 320.860 C 168.961 320.661,169.600 319.466,169.600 319.084 C 169.600 318.928,169.690 318.800,169.800 318.800 C 169.910 318.800,170.000 318.678,170.000 318.530 C 170.000 318.381,170.270 317.977,170.600 317.631 C 170.930 317.286,171.200 316.840,171.200 316.640 C 171.200 316.439,171.369 316.094,171.576 315.872 C 171.782 315.651,172.013 315.273,172.089 315.034 C 172.165 314.794,172.458 314.324,172.739 313.990 C 173.371 313.239,174.600 310.870,174.600 310.403 C 174.600 310.213,174.825 309.816,175.100 309.519 C 175.375 309.222,175.600 308.863,175.600 308.720 C 175.600 308.578,175.764 308.272,175.965 308.041 C 176.165 307.810,176.455 307.233,176.609 306.760 C 176.762 306.287,177.003 305.781,177.144 305.636 C 177.285 305.490,177.400 305.203,177.400 304.998 C 177.400 304.792,177.490 304.568,177.600 304.500 C 177.710 304.432,177.800 304.202,177.800 303.988 C 177.800 303.775,177.926 303.600,178.080 303.600 C 178.235 303.600,178.455 303.330,178.570 303.000 C 178.685 302.670,178.864 302.400,178.967 302.400 C 179.071 302.400,179.213 302.094,179.283 301.720 C 179.353 301.346,179.633 300.621,179.905 300.109 C 180.177 299.597,180.400 299.058,180.400 298.911 C 180.400 298.763,180.535 298.591,180.700 298.528 C 180.865 298.464,181.000 298.185,181.000 297.906 C 181.000 297.628,181.084 297.400,181.186 297.400 C 181.288 297.400,181.513 296.915,181.685 296.322 C 181.858 295.729,182.132 295.192,182.296 295.129 C 182.459 295.067,182.651 294.652,182.722 294.208 C 182.797 293.737,182.961 293.400,183.115 293.400 C 183.263 293.400,183.537 292.891,183.734 292.250 C 183.929 291.618,184.146 291.055,184.215 291.000 C 184.284 290.945,184.498 290.405,184.690 289.800 C 184.882 289.195,185.199 288.560,185.394 288.389 C 185.589 288.218,185.816 287.858,185.899 287.589 C 185.981 287.320,186.123 287.006,186.214 286.892 C 186.305 286.778,186.472 286.328,186.586 285.892 C 186.699 285.456,186.905 284.673,187.042 284.150 C 187.179 283.627,187.360 283.200,187.445 283.200 C 187.530 283.200,187.600 283.072,187.600 282.915 C 187.600 282.757,187.825 282.452,188.100 282.236 C 188.375 282.019,188.603 281.675,188.607 281.471 C 188.615 281.012,189.207 279.313,189.649 278.481 C 189.830 278.141,190.038 277.406,190.112 276.848 C 190.213 276.092,190.343 275.809,190.623 275.736 C 190.831 275.682,191.000 275.489,191.000 275.307 C 191.000 275.126,191.221 274.580,191.492 274.095 C 191.763 273.610,192.045 272.761,192.118 272.207 C 192.191 271.653,192.330 271.200,192.426 271.200 C 192.522 271.200,192.603 271.088,192.607 270.950 C 192.611 270.813,192.787 270.340,193.000 269.900 C 193.213 269.460,193.389 268.950,193.393 268.767 C 193.397 268.583,193.473 268.403,193.563 268.367 C 193.652 268.330,193.875 267.689,194.057 266.942 C 194.239 266.194,194.518 265.454,194.676 265.296 C 194.834 265.137,195.025 264.646,195.099 264.204 C 195.174 263.762,195.345 263.400,195.480 263.400 C 195.622 263.400,195.877 262.730,196.088 261.800 C 196.287 260.920,196.529 260.200,196.625 260.200 C 196.721 260.200,196.800 260.047,196.800 259.860 C 196.800 259.319,197.473 257.200,197.644 257.200 C 197.730 257.200,197.800 257.072,197.800 256.916 C 197.800 256.760,197.950 256.333,198.134 255.966 C 198.754 254.728,198.800 254.606,198.800 254.190 C 198.800 253.961,198.907 253.577,199.039 253.337 C 199.170 253.097,199.342 252.371,199.420 251.723 C 199.499 251.076,199.654 250.490,199.765 250.421 C 199.877 250.352,200.035 250.027,200.117 249.698 C 200.198 249.369,200.474 248.782,200.730 248.393 C 200.986 248.005,201.253 247.240,201.324 246.693 C 201.394 246.147,201.609 245.430,201.802 245.100 C 201.995 244.770,202.213 244.081,202.286 243.570 C 202.359 243.058,202.583 242.450,202.784 242.219 C 202.984 241.987,203.206 241.368,203.276 240.842 C 203.345 240.316,203.523 239.709,203.669 239.493 C 203.816 239.277,204.106 238.425,204.312 237.600 C 204.519 236.775,204.741 236.055,204.807 236.000 C 204.872 235.945,205.043 235.360,205.186 234.700 C 205.330 234.040,205.510 233.455,205.585 233.400 C 205.874 233.187,206.376 231.846,206.604 230.672 C 206.790 229.720,206.951 229.387,207.322 229.188 C 207.585 229.048,207.800 228.821,207.800 228.686 C 207.800 228.538,208.181 228.400,208.750 228.343 C 211.160 228.100,213.600 227.713,213.600 227.573 C 213.600 227.353,214.969 227.002,215.836 227.001 C 216.240 227.001,216.706 226.865,216.871 226.700 C 217.036 226.535,217.313 226.400,217.486 226.400 C 217.659 226.400,217.800 226.318,217.800 226.217 C 217.800 226.116,218.480 225.970,219.310 225.893 C 220.223 225.807,220.939 225.632,221.122 225.450 C 222.028 224.543,224.000 225.142,224.000 226.323 C 224.000 226.570,224.134 226.906,224.299 227.070 C 224.463 227.235,224.695 227.848,224.815 228.435 C 224.935 229.021,225.192 229.638,225.386 229.808 C 225.581 229.977,225.804 230.472,225.882 230.908 C 226.062 231.912,226.441 233.000,226.610 233.000 C 226.682 233.000,226.899 233.585,227.093 234.300 C 227.286 235.015,227.551 235.600,227.681 235.600 C 227.811 235.600,228.037 236.140,228.184 236.800 C 228.330 237.460,228.521 238.000,228.608 238.000 C 228.695 238.000,228.927 238.697,229.125 239.550 C 229.322 240.403,229.543 241.145,229.615 241.200 C 229.687 241.255,229.816 241.525,229.902 241.800 C 229.987 242.075,230.211 242.435,230.398 242.600 C 230.755 242.914,231.085 243.810,231.284 245.004 C 231.348 245.391,231.569 246.021,231.775 246.405 C 231.980 246.788,232.214 247.490,232.294 247.965 C 232.374 248.440,232.561 248.874,232.710 248.931 C 232.858 248.988,233.126 249.477,233.306 250.017 C 233.485 250.558,233.703 251.000,233.791 251.000 C 233.878 251.000,234.008 251.370,234.080 251.822 C 234.153 252.274,234.389 253.011,234.606 253.459 C 234.823 253.908,235.000 254.398,235.000 254.549 C 235.000 254.700,235.204 255.200,235.454 255.662 C 235.703 256.123,236.078 257.017,236.286 257.650 C 236.495 258.282,236.740 258.800,236.832 258.800 C 236.925 258.800,237.000 258.993,237.000 259.229 C 237.000 259.789,237.807 262.000,238.011 262.000 C 238.194 262.000,238.508 262.953,238.700 264.090 C 238.773 264.525,238.969 264.979,239.135 265.101 C 239.301 265.222,239.516 265.745,239.613 266.263 C 239.710 266.781,239.971 267.401,240.194 267.640 C 240.434 267.897,240.600 268.349,240.600 268.744 C 240.600 269.122,240.718 269.458,240.871 269.517 C 241.020 269.574,241.309 270.111,241.512 270.710 C 241.716 271.310,241.948 271.800,242.027 271.800 C 242.106 271.800,242.235 272.307,242.312 272.926 C 242.392 273.569,242.602 274.202,242.801 274.401 C 243.139 274.739,244.000 277.090,244.000 277.675 C 244.000 277.835,244.077 277.997,244.170 278.033 C 244.264 278.070,244.536 278.626,244.774 279.268 C 245.013 279.911,245.336 280.565,245.492 280.721 C 245.648 280.877,245.837 281.409,245.911 281.902 C 245.985 282.396,246.119 282.800,246.209 282.800 C 246.298 282.800,246.519 283.308,246.700 283.928 C 246.880 284.548,247.134 285.175,247.264 285.321 C 247.891 286.025,248.000 286.213,248.000 286.592 C 248.000 286.816,248.080 287.000,248.178 287.000 C 248.277 287.000,248.519 287.540,248.716 288.200 C 248.914 288.860,249.145 289.400,249.230 289.400 C 249.315 289.400,249.493 289.783,249.626 290.250 C 249.758 290.718,250.075 291.328,250.328 291.606 C 250.582 291.884,250.891 292.401,251.015 292.756 C 251.138 293.110,251.312 293.400,251.402 293.400 C 251.492 293.400,251.626 293.765,251.702 294.210 C 251.781 294.678,252.000 295.121,252.219 295.258 C 252.429 295.389,252.600 295.610,252.600 295.748 C 252.600 295.887,252.690 296.000,252.800 296.000 C 252.910 296.000,253.000 296.121,253.000 296.269 C 253.000 296.418,253.191 296.755,253.424 297.019 C 253.656 297.284,253.935 297.748,254.043 298.050 C 254.151 298.353,254.320 298.600,254.420 298.600 C 254.519 298.600,254.600 298.719,254.600 298.864 C 254.600 299.009,254.916 299.481,255.301 299.914 C 255.687 300.346,256.056 300.866,256.121 301.070 C 256.250 301.473,256.568 301.882,257.525 302.876 C 257.868 303.233,258.212 303.722,258.288 303.963 C 258.364 304.203,258.513 304.400,258.618 304.400 C 258.724 304.400,258.895 304.625,259.000 304.900 C 259.105 305.175,259.327 305.400,259.495 305.400 C 259.663 305.400,259.800 305.490,259.800 305.600 C 259.800 305.710,259.902 305.800,260.027 305.800 C 260.323 305.800,261.000 306.586,261.000 306.931 C 261.000 307.079,261.092 307.200,261.205 307.200 C 261.318 307.200,261.701 307.467,262.055 307.794 C 263.329 308.967,264.302 309.791,264.419 309.795 C 264.484 309.798,264.799 310.025,265.119 310.300 C 265.439 310.575,265.781 310.800,265.879 310.800 C 265.977 310.800,266.247 310.987,266.479 311.215 C 267.026 311.754,268.232 312.520,268.829 312.707 C 269.088 312.789,269.515 313.023,269.777 313.228 C 270.039 313.432,270.355 313.600,270.479 313.600 C 270.603 313.600,270.929 313.809,271.204 314.063 C 271.665 314.491,272.692 314.879,274.050 315.140 C 274.353 315.198,274.600 315.318,274.600 315.407 C 274.600 315.616,277.169 316.200,278.089 316.200 C 278.550 316.200,278.800 316.294,278.800 316.468 C 278.800 316.812,280.090 317.200,281.233 317.200 C 281.721 317.200,282.232 317.313,282.370 317.450 C 282.705 317.785,295.140 317.814,295.357 317.480 C 295.436 317.359,296.265 317.204,297.200 317.134 C 299.246 316.983,299.800 316.842,299.800 316.477 C 299.800 316.299,300.027 316.200,300.433 316.200 C 301.322 316.200,304.686 315.545,304.767 315.356 C 304.803 315.270,305.028 315.195,305.267 315.188 C 305.829 315.173,308.351 314.516,308.529 314.337 C 308.605 314.262,308.822 314.200,309.012 314.200 C 309.202 314.200,309.409 314.065,309.472 313.900 C 309.536 313.735,309.758 313.600,309.967 313.600 C 310.175 313.600,310.561 313.433,310.823 313.229 C 311.085 313.025,311.768 312.747,312.340 312.612 C 312.912 312.476,313.486 312.238,313.615 312.082 C 313.744 311.927,314.016 311.800,314.220 311.800 C 314.424 311.800,314.731 311.586,314.903 311.323 C 315.075 311.061,315.471 310.796,315.784 310.733 C 316.096 310.671,316.475 310.497,316.626 310.348 C 316.777 310.198,317.418 309.823,318.050 309.514 C 318.683 309.206,319.200 308.874,319.200 308.777 C 319.200 308.679,319.315 308.600,319.456 308.600 C 319.596 308.600,319.865 308.420,320.054 308.200 C 320.242 307.980,320.542 307.800,320.719 307.800 C 320.897 307.800,321.383 307.530,321.800 307.200 C 322.217 306.870,322.624 306.600,322.705 306.600 C 322.787 306.600,323.000 306.443,323.179 306.250 C 323.569 305.832,324.169 305.432,324.650 305.271 C 324.843 305.206,325.000 305.027,325.000 304.872 C 325.000 304.717,325.220 304.507,325.488 304.405 C 325.756 304.303,326.074 304.035,326.195 303.810 C 326.315 303.584,326.536 303.400,326.684 303.400 C 326.833 303.400,327.101 303.175,327.282 302.900 C 327.462 302.625,327.757 302.400,327.937 302.400 C 328.227 302.400,329.599 301.072,329.600 300.791 C 329.600 300.731,330.050 300.339,330.600 299.920 C 331.150 299.500,331.600 299.032,331.600 298.878 C 331.600 298.725,331.728 298.600,331.885 298.600 C 332.043 298.600,332.348 298.375,332.564 298.100 C 332.781 297.825,333.050 297.600,333.163 297.600 C 333.413 297.600,334.796 296.015,334.809 295.714 C 334.814 295.596,335.176 295.230,335.612 294.900 C 336.049 294.570,336.542 294.053,336.708 293.750 C 336.874 293.447,337.100 293.200,337.210 293.200 C 337.320 293.200,337.495 292.975,337.600 292.700 C 337.711 292.407,337.949 292.200,338.173 292.200 C 338.407 292.200,338.602 292.020,338.673 291.738 C 338.736 291.483,339.016 291.011,339.294 290.688 C 339.572 290.364,339.800 290.032,339.800 289.950 C 339.800 289.868,339.935 289.800,340.100 289.800 C 340.265 289.800,340.400 289.684,340.400 289.542 C 340.400 289.400,340.756 288.891,341.191 288.410 C 341.626 287.929,342.039 287.278,342.108 286.964 C 342.181 286.632,342.573 286.120,343.041 285.746 C 343.526 285.358,344.046 284.669,344.343 284.021 C 344.615 283.428,345.224 282.551,345.696 282.073 C 346.167 281.594,346.703 280.887,346.886 280.501 C 347.069 280.116,347.303 279.800,347.407 279.800 C 347.510 279.800,347.695 279.398,347.819 278.906 C 347.963 278.335,348.180 277.970,348.422 277.893 C 348.629 277.827,348.854 277.554,348.921 277.287 C 348.988 277.019,349.124 276.800,349.222 276.800 C 349.320 276.800,349.400 276.665,349.400 276.500 C 349.400 276.335,349.468 276.200,349.550 276.199 C 349.632 276.199,349.866 275.794,350.070 275.299 C 350.273 274.805,350.516 274.400,350.610 274.400 C 350.704 274.400,350.940 274.062,351.134 273.650 C 351.328 273.238,351.643 272.730,351.834 272.523 C 352.024 272.316,352.240 271.874,352.313 271.542 C 352.386 271.211,352.644 270.750,352.886 270.520 C 353.358 270.071,354.400 268.098,354.400 267.654 C 354.400 267.508,354.535 267.336,354.700 267.272 C 355.032 267.145,355.117 266.400,354.800 266.400 C 354.690 266.400,354.600 266.168,354.600 265.884 C 354.600 265.468,354.445 265.307,353.800 265.054 C 353.360 264.881,353.000 264.677,353.000 264.602 C 353.000 264.526,352.642 264.346,352.204 264.201 C 351.765 264.057,351.355 263.772,351.290 263.569 C 351.226 263.366,350.999 263.200,350.787 263.200 C 350.574 263.200,350.221 263.021,350.001 262.801 C 349.782 262.582,349.232 262.290,348.778 262.151 C 348.324 262.013,347.909 261.788,347.855 261.650 C 347.801 261.512,347.604 261.400,347.417 261.400 C 347.230 261.400,346.902 261.268,346.688 261.106 C 346.185 260.725,344.800 260.699,344.800 261.071 C 344.800 261.220,344.583 261.576,344.318 261.862 C 344.053 262.148,343.777 262.649,343.705 262.975 C 343.634 263.301,343.356 263.805,343.088 264.095 C 342.819 264.384,342.600 264.703,342.600 264.803 C 342.600 264.904,342.432 265.076,342.227 265.186 C 342.008 265.303,341.803 265.700,341.732 266.144 C 341.666 266.561,341.429 267.058,341.205 267.249 C 340.982 267.440,340.800 267.721,340.800 267.874 C 340.800 268.026,340.658 268.269,340.485 268.412 C 340.312 268.556,339.994 269.020,339.777 269.445 C 339.561 269.869,339.216 270.384,339.012 270.588 C 338.808 270.792,338.582 271.226,338.511 271.552 C 338.432 271.908,338.185 272.234,337.890 272.368 C 337.621 272.491,337.400 272.682,337.400 272.793 C 337.400 273.038,336.229 274.963,335.805 275.415 C 335.215 276.043,334.817 276.587,334.505 277.191 C 334.332 277.526,334.119 277.800,334.033 277.800 C 333.947 277.800,333.718 278.160,333.524 278.600 C 333.330 279.040,333.049 279.400,332.900 279.400 C 332.593 279.400,331.400 280.770,331.400 281.123 C 331.400 281.250,331.160 281.511,330.867 281.703 C 330.344 282.046,329.636 282.742,328.553 283.976 C 328.252 284.319,327.950 284.600,327.882 284.600 C 327.596 284.600,326.212 285.847,326.097 286.208 C 326.029 286.424,325.810 286.600,325.611 286.600 C 325.412 286.600,325.137 286.735,325.000 286.900 C 324.863 287.065,324.627 287.200,324.476 287.200 C 324.324 287.200,324.200 287.276,324.200 287.368 C 324.200 287.592,323.403 287.944,322.518 288.110 C 322.109 288.187,321.800 288.362,321.800 288.518 C 321.800 288.878,321.001 289.067,319.400 289.085 C 317.638 289.105,316.200 288.844,316.200 288.504 C 316.200 288.354,315.910 288.168,315.557 288.090 C 314.791 287.922,314.160 287.595,313.940 287.250 C 313.852 287.113,313.644 287.000,313.477 287.000 C 313.190 287.000,311.800 285.688,311.800 285.418 C 311.800 285.349,311.352 284.937,310.805 284.504 C 310.258 284.070,309.722 283.465,309.615 283.158 C 309.508 282.851,309.337 282.600,309.234 282.600 C 309.131 282.600,308.994 282.443,308.929 282.250 C 308.806 281.883,307.671 280.227,307.004 279.441 C 306.790 279.189,306.558 278.678,306.488 278.305 C 306.418 277.933,306.235 277.579,306.080 277.520 C 305.926 277.461,305.800 277.308,305.800 277.180 C 305.800 277.052,305.642 276.801,305.448 276.623 C 305.066 276.272,304.702 275.332,304.490 274.150 C 304.416 273.738,304.277 273.400,304.180 273.400 C 304.084 273.400,303.873 273.084,303.712 272.697 C 303.550 272.311,303.288 271.944,303.129 271.883 C 302.970 271.822,302.782 271.441,302.712 271.036 C 302.550 270.106,302.198 269.200,301.998 269.200 C 301.914 269.200,301.784 268.878,301.710 268.485 C 301.637 268.092,301.387 267.439,301.155 267.035 C 300.924 266.631,300.608 266.053,300.453 265.750 C 300.298 265.447,300.087 265.200,299.985 265.200 C 299.883 265.200,299.800 265.043,299.801 264.850 C 299.802 264.364,299.151 262.553,298.867 262.252 C 298.738 262.116,298.573 261.733,298.500 261.402 C 298.428 261.071,298.285 260.800,298.184 260.800 C 298.083 260.800,298.000 260.652,298.000 260.472 C 298.000 260.292,297.866 260.044,297.701 259.922 C 297.537 259.800,297.322 259.261,297.223 258.725 C 297.123 258.189,296.955 257.694,296.849 257.625 C 296.743 257.556,296.534 257.140,296.383 256.700 C 296.233 256.260,295.917 255.659,295.680 255.364 C 295.444 255.070,295.190 254.507,295.116 254.114 C 295.042 253.721,294.903 253.400,294.807 253.400 C 294.711 253.400,294.569 253.108,294.492 252.750 C 294.416 252.393,294.191 251.762,293.994 251.348 C 293.796 250.935,293.574 250.241,293.501 249.807 C 293.412 249.278,293.241 248.976,292.984 248.895 C 292.773 248.828,292.543 248.532,292.473 248.237 C 292.402 247.942,292.278 247.610,292.196 247.500 C 292.113 247.390,291.979 246.988,291.898 246.607 C 291.816 246.225,291.657 245.730,291.543 245.507 C 291.069 244.570,291.000 244.391,291.000 244.103 C 291.000 243.936,290.884 243.800,290.741 243.800 C 290.599 243.800,290.309 243.283,290.097 242.650 C 289.885 242.018,289.596 241.381,289.456 241.236 C 289.315 241.091,289.144 240.619,289.075 240.187 C 289.006 239.756,288.743 239.163,288.491 238.870 C 288.239 238.576,287.976 238.036,287.907 237.668 C 287.838 237.301,287.707 237.000,287.615 237.000 C 287.523 237.000,287.342 236.580,287.213 236.067 C 287.084 235.555,286.803 234.912,286.589 234.641 C 286.375 234.369,286.200 233.940,286.200 233.687 C 286.200 233.435,286.065 233.094,285.900 232.929 C 285.735 232.764,285.600 232.532,285.600 232.414 C 285.600 232.296,285.518 232.200,285.418 232.200 C 285.317 232.200,285.172 231.824,285.094 231.364 C 285.016 230.904,284.783 230.226,284.576 229.858 C 284.369 229.489,284.200 229.018,284.200 228.810 C 284.200 228.329,283.632 227.263,283.050 226.654 C 282.791 226.382,282.600 225.931,282.600 225.591 C 282.600 225.266,282.510 225.000,282.400 225.000 C 282.290 225.000,282.200 224.875,282.200 224.723 C 282.200 224.570,282.066 224.188,281.901 223.873 C 281.737 223.558,281.602 223.165,281.600 223.000 C 281.598 222.676,280.688 220.790,280.447 220.610 C 280.175 220.406,279.600 219.241,279.600 218.893 C 279.600 218.703,279.430 218.267,279.222 217.924 C 279.013 217.581,278.784 217.020,278.712 216.677 C 278.639 216.334,278.405 215.866,278.190 215.635 C 277.976 215.405,277.800 215.126,277.800 215.014 C 277.800 214.903,277.586 214.337,277.325 213.756 C 277.063 213.175,276.742 212.364,276.610 211.953 C 276.479 211.542,276.298 211.160,276.208 211.105 C 276.119 211.050,275.987 210.693,275.916 210.313 C 275.837 209.896,275.641 209.576,275.420 209.506 C 275.170 209.427,275.015 209.121,274.934 208.545 C 274.809 207.650,274.393 206.604,274.162 206.602 C 274.086 206.601,273.864 206.060,273.668 205.400 C 273.472 204.740,273.206 204.200,273.078 204.200 C 272.949 204.200,272.683 203.593,272.485 202.850 C 272.287 202.108,272.007 201.428,271.863 201.340 C 271.718 201.252,271.600 201.033,271.600 200.854 C 271.600 200.238,271.120 199.202,270.785 199.095 C 270.559 199.023,270.408 198.671,270.320 198.010 C 270.249 197.471,270.099 197.000,269.989 196.963 C 268.990 196.630,269.182 193.424,270.251 192.579 C 270.585 192.316,271.002 191.940,271.179 191.745 C 271.355 191.550,271.703 191.180,271.950 190.922 C 272.197 190.665,272.400 190.358,272.400 190.241 C 272.400 190.123,272.572 189.972,272.782 189.906 C 272.992 189.839,273.322 189.540,273.514 189.242 C 273.707 188.944,274.120 188.435,274.432 188.112 C 274.744 187.789,275.000 187.421,275.000 187.294 C 275.000 187.168,275.225 186.962,275.500 186.836 C 275.775 186.711,276.000 186.517,276.000 186.404 C 276.000 186.173,276.172 185.966,277.707 184.346 C 278.308 183.711,278.800 183.063,278.800 182.907 C 278.800 182.751,278.970 182.504,279.178 182.358 C 279.386 182.213,279.696 181.757,279.868 181.347 C 280.039 180.936,280.306 180.600,280.461 180.600 C 280.817 180.600,281.778 179.474,282.040 178.750 C 282.150 178.448,282.320 178.200,282.420 178.200 C 282.519 178.200,282.600 178.082,282.600 177.938 C 282.600 177.793,282.875 177.472,283.211 177.224 C 283.546 176.976,283.928 176.531,284.058 176.236 C 284.187 175.941,284.453 175.582,284.647 175.439 C 284.841 175.295,285.000 175.056,285.000 174.908 C 285.000 174.659,285.943 173.376,286.728 172.556 C 287.105 172.162,287.488 171.542,287.842 170.750 C 287.977 170.447,288.162 170.200,288.253 170.200 C 288.556 170.200,289.400 169.148,289.400 168.771 C 289.400 168.567,289.471 168.400,289.557 168.400 C 289.643 168.400,289.873 168.130,290.068 167.800 C 290.263 167.470,290.542 167.200,290.687 167.200 C 290.832 167.200,291.063 166.930,291.200 166.600 C 291.337 166.270,291.528 166.000,291.624 166.000 C 291.721 166.000,291.800 165.893,291.800 165.762 C 291.800 165.336,292.692 164.203,293.028 164.201 C 293.218 164.201,293.414 163.971,293.492 163.659 C 293.567 163.361,293.802 162.996,294.014 162.848 C 294.226 162.699,294.400 162.467,294.400 162.333 C 294.400 162.199,294.580 161.935,294.800 161.746 C 295.020 161.558,295.200 161.291,295.200 161.152 C 295.200 161.013,295.518 160.647,295.906 160.337 C 296.294 160.027,296.842 159.409,297.123 158.963 C 297.678 158.085,298.708 157.000,298.987 157.000 C 299.083 157.000,299.255 156.729,299.371 156.397 C 299.486 156.066,299.720 155.741,299.891 155.676 C 300.061 155.611,300.200 155.432,300.200 155.279 C 300.200 155.125,300.339 155.000,300.509 155.000 C 300.679 155.000,301.043 154.775,301.318 154.500 C 301.593 154.225,301.897 154.000,301.992 154.000 C 302.088 154.000,302.287 153.725,302.433 153.389 C 302.604 152.999,302.989 152.646,303.500 152.414 C 303.940 152.213,304.480 151.878,304.700 151.668 C 305.728 150.689,307.776 150.201,309.671 150.485 C 311.477 150.756,312.200 152.126,312.200 155.277 C 312.200 156.461,312.287 157.430,312.400 157.500 C 312.510 157.568,312.600 158.338,312.600 159.212 C 312.600 160.085,312.685 160.800,312.788 160.800 C 312.891 160.800,313.038 161.430,313.114 162.200 C 313.190 162.970,313.321 163.600,313.405 163.600 C 313.489 163.600,313.605 163.938,313.663 164.350 C 313.869 165.816,314.276 167.304,314.546 167.574 C 314.696 167.725,314.873 168.115,314.938 168.441 C 315.003 168.767,315.179 169.081,315.328 169.139 C 315.478 169.196,315.600 169.362,315.600 169.507 C 315.600 169.652,315.828 169.950,316.107 170.170 C 316.385 170.389,316.754 170.980,316.926 171.484 C 317.097 171.988,317.329 172.400,317.440 172.400 C 317.551 172.400,317.819 172.625,318.036 172.900 C 318.252 173.175,318.557 173.400,318.715 173.400 C 318.872 173.400,319.000 173.487,319.000 173.593 C 319.000 173.935,320.148 174.973,320.851 175.267 C 321.227 175.424,321.770 175.788,322.058 176.076 C 322.346 176.364,322.713 176.600,322.874 176.600 C 323.035 176.600,323.197 176.671,323.233 176.759 C 323.332 176.994,325.309 177.800,325.787 177.800 C 326.014 177.800,326.200 177.871,326.200 177.959 C 326.200 178.164,327.832 178.600,328.603 178.600 C 329.000 178.600,329.200 178.700,329.200 178.900 C 329.200 179.159,329.878 179.200,334.100 179.200 C 338.322 179.200,339.000 179.159,339.000 178.900 C 339.000 178.696,339.204 178.600,339.638 178.600 C 340.531 178.600,342.600 178.153,342.600 177.960 C 342.600 177.872,342.754 177.800,342.943 177.800 C 343.373 177.800,344.999 177.209,345.400 176.906 C 345.565 176.782,346.038 176.507,346.450 176.295 C 346.863 176.083,347.200 175.850,347.200 175.779 C 347.200 175.707,347.461 175.540,347.780 175.408 C 348.099 175.276,348.565 174.950,348.815 174.684 C 349.065 174.418,349.389 174.200,349.535 174.200 C 349.681 174.200,349.800 174.035,349.800 173.834 C 349.800 173.632,350.044 173.340,350.343 173.184 C 350.984 172.849,352.400 171.443,352.400 171.142 C 352.400 171.026,352.783 170.563,353.250 170.113 C 353.817 169.568,354.189 168.984,354.368 168.362 C 354.515 167.849,354.750 167.385,354.889 167.332 C 355.029 167.278,355.199 166.957,355.267 166.617 C 355.336 166.269,355.516 166.000,355.679 166.000 C 355.845 166.000,356.025 165.723,356.101 165.350 C 356.288 164.431,356.671 163.320,356.846 163.190 C 356.976 163.094,357.137 161.994,357.543 158.450 C 357.596 157.983,357.721 157.600,357.820 157.600 C 357.921 157.600,358.000 155.794,358.000 153.500 C 358.000 151.192,357.921 149.400,357.819 149.400 C 357.720 149.400,357.592 148.972,357.536 148.450 C 357.123 144.645,356.980 143.751,356.743 143.515 C 356.596 143.367,356.352 142.732,356.201 142.103 C 356.050 141.474,355.816 140.917,355.681 140.865 C 355.547 140.814,355.320 140.489,355.177 140.144 C 355.034 139.799,354.756 139.356,354.559 139.159 C 354.361 138.961,354.200 138.656,354.200 138.481 C 354.200 138.111,353.528 137.097,352.861 136.460 C 352.607 136.217,352.400 135.902,352.400 135.760 C 352.399 135.459,351.048 134.138,350.543 133.944 C 350.354 133.872,350.200 133.677,350.200 133.511 C 350.200 133.345,349.954 133.050,349.653 132.855 C 349.353 132.660,348.957 132.352,348.774 132.170 C 348.591 131.989,348.166 131.780,347.829 131.706 C 347.478 131.629,347.166 131.407,347.095 131.183 C 346.985 130.839,344.744 129.600,344.230 129.600 C 344.127 129.600,343.995 129.476,343.937 129.325 C 343.879 129.174,343.491 128.987,343.075 128.908 C 342.659 128.830,342.166 128.592,341.981 128.378 C 341.752 128.114,341.115 127.896,339.999 127.700 C 339.094 127.541,338.215 127.296,338.046 127.155 C 337.602 126.787,322.458 126.783,322.230 127.151 C 322.145 127.290,321.190 127.524,320.096 127.676 C 319.007 127.826,318.083 128.051,318.042 128.175 C 318.000 128.299,317.749 128.400,317.483 128.400 C 317.218 128.400,317.000 128.490,317.000 128.600 C 317.000 128.710,316.849 128.800,316.664 128.800 C 316.287 128.800,314.954 129.237,314.800 129.411 C 314.745 129.474,314.077 129.691,313.315 129.894 C 312.091 130.221,311.559 130.512,310.718 131.319 C 310.593 131.440,310.170 131.599,309.780 131.672 C 309.390 131.745,308.888 131.974,308.666 132.181 C 308.154 132.658,307.114 133.200,306.710 133.200 C 306.539 133.200,306.400 133.320,306.400 133.466 C 306.400 133.613,306.153 133.860,305.850 134.016 C 305.548 134.172,305.255 134.345,305.200 134.400 C 305.006 134.594,304.296 135.013,303.975 135.123 C 303.796 135.184,303.533 135.451,303.391 135.717 C 303.249 135.983,302.972 136.200,302.776 136.200 C 302.580 136.200,302.348 136.315,302.260 136.455 C 302.106 136.700,301.357 137.261,300.568 137.721 C 300.360 137.843,299.809 138.350,299.345 138.848 C 298.880 139.347,298.207 139.902,297.850 140.082 C 297.493 140.263,297.200 140.487,297.200 140.581 C 297.200 140.769,296.240 141.762,294.560 143.312 C 293.956 143.868,293.381 144.455,293.281 144.617 C 293.182 144.778,292.853 145.067,292.550 145.259 C 292.248 145.452,292.000 145.739,292.000 145.898 C 292.000 146.056,291.820 146.282,291.600 146.400 C 291.380 146.518,291.200 146.744,291.200 146.902 C 291.200 147.061,290.967 147.344,290.682 147.530 C 290.397 147.717,290.084 148.079,289.987 148.335 C 289.889 148.591,289.695 148.800,289.555 148.800 C 289.415 148.801,289.035 149.219,288.712 149.731 C 288.135 150.644,287.753 151.114,286.450 152.515 C 286.093 152.899,285.800 153.300,285.800 153.407 C 285.800 153.513,285.433 153.967,284.984 154.416 C 284.535 154.865,284.076 155.497,283.963 155.820 C 283.850 156.144,283.587 156.500,283.379 156.611 C 283.171 156.723,282.999 156.923,282.999 157.057 C 282.998 157.191,282.728 157.453,282.399 157.641 C 282.069 157.828,281.800 158.136,281.800 158.324 C 281.800 158.695,281.698 158.828,280.319 160.243 C 279.813 160.761,279.400 161.316,279.400 161.476 C 279.400 161.636,279.332 161.797,279.250 161.833 C 279.168 161.870,278.839 162.305,278.520 162.800 C 278.200 163.295,277.818 163.772,277.670 163.860 C 277.521 163.948,277.400 164.115,277.400 164.231 C 277.400 164.347,277.175 164.619,276.900 164.836 C 276.625 165.052,276.400 165.344,276.400 165.484 C 276.400 165.623,276.220 165.901,276.000 166.100 C 275.780 166.299,275.600 166.577,275.600 166.718 C 275.600 166.858,275.422 167.030,275.204 167.099 C 274.985 167.168,274.651 167.557,274.461 167.962 C 274.271 168.368,273.999 168.820,273.856 168.966 C 273.714 169.112,273.505 169.404,273.392 169.616 C 273.279 169.827,273.065 170.000,272.917 170.000 C 272.769 170.000,272.537 170.270,272.400 170.600 C 272.263 170.930,272.072 171.200,271.976 171.200 C 271.879 171.200,271.800 171.328,271.800 171.485 C 271.800 171.850,270.837 173.000,270.531 173.000 C 270.403 173.000,270.185 173.248,270.048 173.550 C 269.910 173.853,269.483 174.459,269.099 174.898 C 268.715 175.337,268.400 175.811,268.400 175.952 C 268.400 176.093,268.175 176.311,267.900 176.436 C 267.625 176.562,267.400 176.740,267.400 176.832 C 267.400 176.924,267.243 177.163,267.050 177.363 C 266.858 177.563,266.534 178.047,266.331 178.439 C 266.128 178.832,265.746 179.252,265.481 179.372 C 265.217 179.493,265.000 179.679,265.000 179.787 C 265.000 179.894,264.798 180.202,264.550 180.472 C 264.015 181.054,263.814 181.318,263.344 182.050 C 263.150 182.353,262.868 182.600,262.718 182.600 C 262.569 182.600,262.285 182.846,262.088 183.147 C 261.891 183.447,261.520 183.919,261.265 184.195 C 261.009 184.470,260.800 184.763,260.800 184.845 C 260.800 184.927,260.453 185.224,260.029 185.505 C 259.604 185.786,259.156 186.237,259.033 186.508 C 258.910 186.778,258.682 187.000,258.528 187.000 C 258.373 187.000,258.200 187.180,258.142 187.400 C 258.079 187.639,257.869 187.800,257.619 187.800 C 257.362 187.800,257.200 187.928,257.200 188.131 C 257.200 188.313,256.840 188.804,256.400 189.223 C 255.960 189.642,255.600 190.078,255.600 190.192 C 255.600 190.306,255.461 190.400,255.290 190.400 C 255.120 190.400,254.452 190.917,253.806 191.550 C 253.160 192.183,252.399 192.862,252.115 193.059 C 251.832 193.257,251.600 193.543,251.600 193.696 C 251.600 193.848,251.420 194.030,251.200 194.100 C 250.980 194.170,250.800 194.316,250.800 194.424 C 250.800 194.532,250.530 194.715,250.200 194.830 C 249.870 194.945,249.600 195.174,249.600 195.338 C 249.600 195.503,249.423 195.684,249.207 195.740 C 248.990 195.797,248.765 195.996,248.706 196.182 C 248.647 196.368,248.261 196.641,247.849 196.788 C 247.112 197.050,245.800 198.195,245.800 198.574 C 245.800 198.681,245.536 198.826,245.214 198.897 C 244.891 198.968,244.515 199.162,244.377 199.327 C 244.239 199.493,243.806 199.794,243.413 199.995 C 243.021 200.196,242.504 200.572,242.264 200.830 C 241.544 201.605,240.603 202.200,240.096 202.200 C 239.926 202.200,239.737 202.332,239.675 202.492 C 239.614 202.653,239.392 202.839,239.183 202.905 C 238.974 202.972,238.689 203.136,238.551 203.270 C 238.413 203.404,237.850 203.772,237.300 204.089 C 236.750 204.405,236.228 204.785,236.140 204.932 C 236.052 205.079,235.766 205.200,235.505 205.200 C 235.236 205.200,234.858 205.417,234.636 205.700 C 234.419 205.975,234.098 206.200,233.921 206.200 C 233.745 206.200,233.429 206.371,233.220 206.580 C 233.012 206.788,232.562 207.021,232.221 207.095 C 231.880 207.170,231.488 207.390,231.350 207.584 C 231.213 207.777,230.835 208.001,230.512 208.081 C 230.188 208.161,229.767 208.407,229.576 208.628 C 229.272 208.978,228.258 209.361,226.621 209.745 C 226.358 209.807,225.975 210.025,225.771 210.229 C 225.567 210.433,225.130 210.600,224.800 210.600 C 224.470 210.600,224.200 210.690,224.200 210.800 C 224.200 210.910,224.104 211.000,223.986 211.000 C 223.868 211.000,223.636 211.135,223.471 211.300 C 223.306 211.465,222.956 211.600,222.694 211.600 C 222.431 211.600,222.055 211.772,221.858 211.982 C 221.653 212.200,220.990 212.457,220.312 212.582 C 219.658 212.702,219.063 212.897,218.990 213.015 C 218.917 213.134,218.490 213.280,218.040 213.340 C 217.590 213.400,217.032 213.627,216.800 213.843 C 216.522 214.102,215.887 214.302,214.939 214.430 C 214.148 214.537,213.145 214.807,212.710 215.030 C 211.814 215.490,211.352 215.219,211.533 214.341 C 211.807 213.019,212.072 212.200,212.226 212.200 C 212.322 212.200,212.401 211.907,212.401 211.550 C 212.403 210.599,212.764 209.457,213.104 209.326 C 213.281 209.258,213.401 208.950,213.402 208.556 C 213.404 208.195,213.538 207.405,213.700 206.800 C 213.862 206.195,213.996 205.453,213.998 205.150 C 213.999 204.847,214.090 204.600,214.200 204.600 C 214.310 204.600,214.400 204.282,214.400 203.894 C 214.400 203.505,214.535 202.864,214.700 202.469 C 214.865 202.074,215.000 201.443,215.000 201.067 C 215.000 200.673,215.160 200.211,215.378 199.978 C 215.773 199.554,216.000 198.749,216.000 197.775 C 216.000 197.459,216.071 197.200,216.159 197.200 C 216.375 197.200,216.785 195.604,216.934 194.176 C 217.002 193.529,217.125 193.000,217.208 193.000 C 217.291 193.000,217.464 192.398,217.592 191.663 C 217.739 190.815,217.965 190.204,218.209 189.992 C 218.495 189.744,218.666 189.135,218.881 187.601 C 219.039 186.469,219.252 185.488,219.355 185.422 C 219.457 185.355,219.603 184.805,219.679 184.200 C 219.938 182.126,220.274 180.800,220.540 180.800 C 220.683 180.800,220.800 180.582,220.800 180.315 C 220.800 179.592,221.246 177.800,221.425 177.800 C 221.511 177.800,221.626 177.508,221.679 177.150 C 222.110 174.261,222.276 173.400,222.403 173.400 C 222.483 173.400,222.608 172.954,222.680 172.408 C 222.752 171.863,222.899 171.362,223.006 171.296 C 223.113 171.230,223.200 170.962,223.200 170.700 C 223.200 170.438,223.290 170.168,223.400 170.100 C 223.510 170.032,223.604 169.599,223.609 169.138 C 223.614 168.677,223.747 167.940,223.906 167.500 C 224.064 167.060,224.252 166.250,224.323 165.700 C 224.395 165.150,224.521 164.610,224.603 164.500 C 224.821 164.210,225.200 162.297,225.200 161.490 C 225.200 161.111,225.287 160.800,225.393 160.800 C 225.761 160.800,226.059 159.909,226.217 158.343 C 226.305 157.478,226.471 156.656,226.587 156.516 C 226.703 156.376,226.930 155.506,227.091 154.583 C 227.252 153.660,227.478 152.874,227.592 152.836 C 227.706 152.798,227.800 152.554,227.800 152.295 C 227.800 152.036,227.890 151.768,228.000 151.700 C 228.110 151.632,228.200 151.172,228.200 150.678 C 228.200 150.184,228.326 149.536,228.480 149.239 C 228.634 148.941,228.913 147.708,229.100 146.498 C 229.287 145.289,229.521 144.215,229.620 144.110 C 229.719 144.006,229.800 143.683,229.800 143.393 C 229.800 142.013,230.242 140.645,230.773 140.380 C 231.203 140.166,236.424 140.130,259.005 140.184 C 283.812 140.243,286.736 140.218,286.966 139.941 C 287.262 139.585,287.230 128.363,286.933 128.066 C 286.842 127.975,275.277 127.882,261.233 127.859 C 247.190 127.836,235.453 127.771,235.150 127.714 C 234.607 127.611,234.234 124.800,234.763 124.800 C 234.949 124.800,235.407 119.773,235.403 117.774 C 235.401 116.860,235.490 116.375,235.689 116.209 C 236.010 115.943,236.247 114.835,236.590 112.006 C 236.716 110.964,236.891 110.064,236.979 110.006 C 237.066 109.948,237.250 108.820,237.387 107.500 C 237.796 103.565,237.825 103.400,238.098 103.400 C 238.240 103.400,238.407 103.108,238.469 102.750 C 238.729 101.244,238.855 100.800,239.023 100.800 C 239.120 100.800,239.200 100.279,239.200 99.642 C 239.200 99.005,239.335 97.966,239.500 97.332 C 239.665 96.699,239.800 95.915,239.800 95.590 C 239.800 95.266,239.882 95.000,239.981 95.000 C 240.081 95.000,240.224 94.550,240.300 94.000 C 240.376 93.450,240.519 93.000,240.619 93.000 C 240.718 93.000,240.800 92.774,240.800 92.497 C 240.800 92.221,240.879 91.838,240.976 91.647 C 241.290 91.026,241.802 89.311,241.801 88.881 C 241.800 88.650,241.941 88.178,242.114 87.832 C 242.287 87.486,242.525 86.617,242.643 85.902 C 242.766 85.164,242.961 84.600,243.093 84.600 C 243.222 84.600,243.486 83.925,243.680 83.100 C 243.875 82.275,244.110 81.600,244.203 81.600 C 244.296 81.600,244.472 81.117,244.595 80.526 C 244.717 79.936,244.946 79.283,245.102 79.076 C 245.259 78.869,245.390 78.541,245.394 78.346 C 245.397 78.151,245.610 77.656,245.867 77.246 C 246.125 76.836,246.498 75.803,246.697 74.950 C 246.897 74.098,247.127 73.400,247.210 73.400 C 247.293 73.400,247.455 73.130,247.570 72.800 C 247.685 72.470,247.874 72.200,247.990 72.200 C 248.105 72.200,248.200 72.020,248.200 71.800 C 248.200 71.580,248.268 71.399,248.350 71.398 C 248.433 71.397,248.668 70.857,248.874 70.198 C 249.079 69.539,249.307 69.000,249.379 69.000 C 249.452 69.000,249.672 68.460,249.868 67.800 C 250.064 67.140,250.294 66.600,250.380 66.600 C 250.467 66.600,250.709 66.268,250.919 65.863 C 251.128 65.458,251.457 64.963,251.650 64.763 C 251.846 64.560,252.000 64.095,252.000 63.707 C 252.000 63.219,252.118 62.951,252.400 62.800 C 252.620 62.682,252.800 62.430,252.800 62.239 C 252.800 62.047,253.057 61.578,253.372 61.196 C 253.686 60.813,254.007 60.298,254.085 60.050 C 254.163 59.803,254.304 59.600,254.398 59.600 C 254.491 59.600,254.626 59.337,254.697 59.015 C 254.768 58.693,255.058 58.196,255.343 57.912 C 255.893 57.362,256.400 56.505,256.400 56.125 C 256.400 55.999,256.580 55.784,256.800 55.646 C 257.020 55.509,257.200 55.269,257.200 55.114 C 257.200 54.958,257.470 54.561,257.800 54.231 C 258.130 53.901,258.400 53.575,258.400 53.507 C 258.400 53.439,258.583 53.186,258.808 52.946 C 259.032 52.705,259.267 52.304,259.329 52.054 C 259.392 51.804,259.521 51.600,259.617 51.600 C 259.712 51.600,259.929 51.330,260.100 51.000 C 260.271 50.670,260.545 50.400,260.710 50.400 C 260.875 50.400,261.096 50.173,261.201 49.896 C 261.518 49.063,262.659 47.666,263.314 47.310 C 263.693 47.104,264.030 46.694,264.195 46.240 C 264.455 45.520,265.298 44.576,266.032 44.183 C 266.234 44.075,266.400 43.899,266.400 43.793 C 266.400 43.539,267.898 42.000,268.146 42.000 C 268.464 42.000,269.120 41.341,269.462 40.677 C 269.638 40.334,270.104 39.901,270.497 39.715 C 270.890 39.528,271.321 39.201,271.454 38.988 C 271.587 38.775,271.758 38.600,271.833 38.600 C 271.908 38.600,272.227 38.352,272.542 38.050 C 274.086 36.567,274.959 35.840,275.342 35.718 C 275.574 35.645,275.814 35.453,275.875 35.292 C 275.937 35.132,276.097 35.000,276.231 35.000 C 276.365 35.000,276.901 34.640,277.423 34.200 C 277.945 33.760,278.423 33.400,278.486 33.400 C 278.549 33.400,278.771 33.243,278.980 33.050 C 280.069 32.046,280.349 31.851,280.900 31.717 C 281.230 31.637,281.742 31.308,282.039 30.986 C 282.335 30.664,282.714 30.400,282.880 30.400 C 283.198 30.400,284.477 29.625,285.017 29.105 C 285.191 28.937,285.408 28.800,285.498 28.800 C 285.588 28.800,285.941 28.590,286.281 28.334 C 286.622 28.077,287.395 27.696,288.000 27.485 C 288.605 27.275,289.145 27.052,289.200 26.990 C 289.255 26.928,289.615 26.756,290.000 26.608 C 290.385 26.460,290.790 26.234,290.900 26.106 C 291.243 25.707,292.436 25.200,293.031 25.200 C 293.344 25.200,293.600 25.122,293.600 25.027 C 293.600 24.932,294.326 24.685,295.213 24.477 C 296.101 24.270,296.989 23.950,297.188 23.766 C 297.386 23.582,297.965 23.370,298.474 23.293 C 298.983 23.217,299.400 23.089,299.400 23.008 C 299.400 22.877,301.790 22.425,304.190 22.102 C 304.680 22.036,305.184 21.896,305.311 21.791 C 305.437 21.686,306.368 21.541,307.378 21.469 C 308.388 21.398,309.261 21.263,309.319 21.170 C 309.376 21.076,309.996 21.000,310.695 21.000 C 311.535 21.000,311.995 20.915,312.050 20.750 C 312.114 20.557,313.596 20.500,318.557 20.500 C 323.429 20.500,325.040 20.560,325.230 20.750 C 325.372 20.892,325.976 21.000,326.628 21.000 C 327.260 21.000,327.824 21.077,327.882 21.171 C 327.940 21.265,328.679 21.394,329.524 21.458 C 330.369 21.521,331.117 21.665,331.186 21.777 C 331.255 21.890,331.714 22.038,332.206 22.107 C 333.406 22.275,335.200 22.817,335.200 23.011 C 335.200 23.098,335.466 23.227,335.791 23.298 C 336.116 23.369,336.430 23.580,336.489 23.766 C 336.548 23.952,336.945 24.255,337.370 24.439 C 338.222 24.808,339.400 25.883,339.400 26.291 C 339.400 26.434,339.535 26.663,339.700 26.800 C 339.865 26.937,340.000 27.218,340.000 27.424 C 340.000 27.631,340.123 27.800,340.273 27.800 C 340.823 27.800,341.015 31.918,340.506 32.800 C 340.347 33.075,340.118 33.525,339.997 33.800 C 339.732 34.403,338.437 35.600,338.049 35.600 C 337.897 35.600,337.636 35.735,337.471 35.900 C 337.306 36.065,336.998 36.200,336.786 36.200 C 336.574 36.200,336.400 36.290,336.400 36.400 C 336.400 36.510,336.212 36.600,335.983 36.600 C 335.549 36.600,333.196 37.143,332.500 37.404 C 331.938 37.614,328.864 38.000,327.750 38.000 C 327.204 38.000,326.754 38.107,326.660 38.259 C 326.564 38.415,325.459 38.665,323.900 38.884 C 322.470 39.085,321.270 39.329,321.233 39.425 C 321.197 39.521,320.972 39.600,320.733 39.599 C 320.059 39.597,318.327 40.262,318.055 40.626 C 317.920 40.807,317.582 41.011,317.305 41.081 C 317.027 41.151,316.800 41.287,316.800 41.385 C 316.800 41.482,316.418 41.787,315.950 42.062 C 315.114 42.554,314.200 43.445,314.200 43.768 C 314.200 43.859,313.920 44.196,313.579 44.517 C 312.352 45.669,311.602 46.504,311.601 46.719 C 311.600 46.839,311.375 47.199,311.100 47.519 C 310.825 47.839,310.600 48.191,310.600 48.302 C 310.600 48.413,310.428 48.611,310.219 48.742 C 310.009 48.873,309.732 49.299,309.603 49.690 C 309.474 50.080,309.293 50.400,309.201 50.400 C 309.108 50.400,308.883 50.850,308.700 51.400 C 308.517 51.950,308.285 52.400,308.184 52.400 C 308.083 52.400,308.000 52.670,308.000 53.000 C 308.000 53.330,307.910 53.600,307.800 53.600 C 307.690 53.600,307.600 53.895,307.600 54.255 C 307.600 54.616,307.478 55.089,307.329 55.305 C 307.037 55.732,306.400 58.348,306.400 59.125 C 306.400 59.386,306.310 59.600,306.200 59.600 C 305.932 59.600,305.927 67.942,306.195 68.033 C 306.303 68.070,306.534 68.859,306.710 69.787 C 306.886 70.715,307.158 71.658,307.315 71.882 C 307.472 72.106,307.600 72.494,307.600 72.745 C 307.600 72.995,307.690 73.200,307.800 73.200 C 307.910 73.200,308.000 73.380,308.000 73.600 C 308.000 73.820,308.081 74.000,308.180 74.000 C 308.279 74.000,308.522 74.450,308.719 75.000 C 308.917 75.550,309.144 76.000,309.224 76.000 C 309.304 76.000,309.468 76.299,309.588 76.664 C 309.712 77.040,310.147 77.584,310.588 77.914 C 311.053 78.264,311.414 78.724,311.480 79.055 C 311.542 79.360,311.812 79.810,312.082 80.055 C 312.351 80.300,312.960 80.860,313.436 81.300 C 313.911 81.740,314.570 82.235,314.900 82.400 C 315.230 82.564,315.572 82.812,315.660 82.950 C 315.748 83.087,315.973 83.202,316.160 83.203 C 316.347 83.205,316.712 83.430,316.971 83.703 C 317.230 83.977,317.607 84.200,317.809 84.200 C 318.011 84.200,318.227 84.282,318.289 84.383 C 318.351 84.483,318.781 84.629,319.243 84.707 C 319.706 84.785,320.223 84.920,320.392 85.006 C 320.828 85.228,322.135 85.549,323.250 85.709 C 323.808 85.789,324.200 85.949,324.200 86.097 C 324.200 86.675,333.185 86.698,333.555 86.121 C 333.635 85.996,334.509 85.732,335.497 85.533 C 336.486 85.334,337.341 85.101,337.397 85.016 C 337.454 84.931,337.899 84.798,338.388 84.722 C 339.151 84.603,340.688 83.936,341.000 83.589 C 341.055 83.527,341.415 83.353,341.800 83.200 C 342.185 83.048,342.572 82.806,342.660 82.662 C 342.748 82.518,342.991 82.400,343.200 82.400 C 343.409 82.400,343.822 82.175,344.119 81.900 C 344.416 81.625,344.729 81.400,344.816 81.400 C 344.902 81.400,345.027 81.231,345.092 81.025 C 345.158 80.819,345.613 80.497,346.106 80.309 C 346.597 80.121,347.000 79.850,347.000 79.707 C 347.000 79.564,347.180 79.400,347.400 79.342 C 347.637 79.280,347.800 79.069,347.800 78.826 C 347.800 78.599,347.972 78.322,348.182 78.210 C 348.886 77.833,349.767 76.807,350.004 76.088 C 350.149 75.649,350.424 75.305,350.720 75.193 C 350.984 75.092,351.200 74.870,351.200 74.699 C 351.200 74.527,351.335 74.336,351.500 74.272 C 351.665 74.209,351.800 74.004,351.800 73.817 C 351.800 73.630,351.932 73.302,352.094 73.088 C 352.255 72.875,352.390 72.552,352.394 72.371 C 352.397 72.191,352.535 71.991,352.700 71.928 C 352.865 71.864,353.000 71.630,353.000 71.406 C 353.000 71.183,353.090 71.000,353.200 71.000 C 353.310 71.000,353.400 70.820,353.400 70.600 C 353.400 70.380,353.470 70.200,353.556 70.200 C 353.725 70.200,354.400 68.084,354.400 67.554 C 354.400 67.375,354.526 67.103,354.680 66.949 C 354.834 66.795,355.074 65.956,355.214 65.084 C 355.366 64.138,355.592 63.408,355.776 63.272 C 356.020 63.091,356.149 62.117,356.392 58.638 C 356.562 56.215,356.768 54.165,356.850 54.083 C 357.080 53.853,357.033 50.000,356.800 50.000 C 356.690 50.000,356.601 49.663,356.602 49.250 C 356.605 48.499,356.266 44.249,356.076 42.650 C 356.014 42.124,355.874 41.800,355.708 41.800 C 355.535 41.800,355.359 41.327,355.207 40.453 C 355.078 39.712,354.876 39.047,354.760 38.975 C 354.643 38.903,354.473 38.376,354.383 37.804 C 354.292 37.232,354.034 36.384,353.809 35.919 C 353.584 35.454,353.400 34.922,353.400 34.737 C 353.400 34.552,353.310 34.400,353.200 34.400 C 353.090 34.400,353.000 34.299,353.000 34.175 C 353.000 33.809,351.761 31.400,351.573 31.400 C 351.478 31.400,351.400 31.238,351.400 31.040 C 351.400 30.521,350.939 29.603,350.677 29.602 C 350.555 29.601,350.292 29.173,350.094 28.650 C 349.896 28.127,349.568 27.582,349.367 27.439 C 349.165 27.295,349.000 27.045,349.000 26.884 C 349.000 26.723,348.790 26.496,348.534 26.379 C 348.278 26.262,347.954 25.852,347.815 25.467 C 347.434 24.413,340.025 17.200,339.323 17.200 C 339.185 17.200,338.876 16.975,338.637 16.700 C 338.398 16.425,338.118 16.200,338.015 16.200 C 337.911 16.200,337.776 16.038,337.713 15.840 C 337.650 15.642,337.261 15.361,336.849 15.215 C 336.437 15.070,335.965 14.838,335.800 14.701 C 335.635 14.563,335.140 14.285,334.700 14.082 C 334.260 13.879,333.726 13.553,333.512 13.357 C 333.299 13.160,333.058 13.000,332.977 13.000 C 332.895 13.000,332.706 12.888,332.555 12.750 C 332.026 12.266,330.961 11.800,330.384 11.800 C 330.063 11.800,329.800 11.726,329.800 11.636 C 329.800 11.545,329.337 11.262,328.770 11.006 C 328.204 10.750,327.574 10.374,327.370 10.170 C 327.136 9.936,326.712 9.800,326.214 9.800 C 325.782 9.800,325.297 9.668,325.136 9.508 C 324.976 9.347,324.249 9.066,323.522 8.883 C 322.789 8.699,322.200 8.442,322.200 8.305 C 322.200 8.157,321.669 7.971,320.867 7.838 C 320.134 7.717,319.474 7.521,319.401 7.402 C 319.281 7.208,318.604 7.045,316.350 6.672 C 315.938 6.603,315.600 6.483,315.600 6.403 C 315.600 6.324,314.769 6.205,313.753 6.140 C 312.738 6.074,311.875 5.925,311.837 5.810 C 311.798 5.694,311.612 5.600,311.423 5.600 C 311.235 5.600,310.995 5.518,310.890 5.419 C 310.489 5.036,293.556 4.694,290.100 4.999 " stroke="none" fill="#ffffff" fill-rule="evenodd"></path><path id="path1" d="" stroke="none" fill="#100fcfc" fill-rule="evenodd"></path><path id="path2" d="" stroke="none" fill="#100fcfc" fill-rule="evenodd"></path><path id="path3" d="" stroke="none" fill="#100fcfc" fill-rule="evenodd"></path><path id="path4" d="" stroke="none" fill="#100fcfc" fill-rule="evenodd"></path></g></svg>