<?xml version="1.0" encoding="UTF-8"?>
<svg version="1.1" xmlns="http://www.w3.org/2000/svg" width="484" height="515">
<path d="M0 0 C0 0.66 0 1.32 0 2 C0.66 2 1.32 2 2 2 C2 2.66 2 3.32 2 4 C2.66 4 3.32 4 4 4 C4 4.66 4 5.32 4 6 C4.66 6 5.32 6 6 6 C7.3671875 7.58203125 7.3671875 7.58203125 8.875 9.8125 C9.61363281 10.87404297 9.61363281 10.87404297 10.3671875 11.95703125 C14.97893344 20.55164869 16.6497921 28.28847914 16.5 38 C16.51546875 39.00289062 16.5309375 40.00578125 16.546875 41.0390625 C16.49462092 51.15022775 13.62849925 59.46205264 7.5625 67.5390625 C5.74758675 69.23600639 4.42570891 69.61314125 2 70 C2 70.66 2 71.32 2 72 C-7.29972211 76.02927999 -15.43250986 77.82695581 -25.25 74.5 C-31.2475794 71.78249582 -35.20988867 67.66333498 -38.09375 61.76171875 C-41.46999443 52.71150798 -40.2962578 43.92687612 -37 35 C-33.80745846 29.17728873 -29.99389355 25.14087988 -23.74609375 22.76953125 C-18.93880915 21.42239744 -14.06998462 20.49302027 -9.16015625 19.61328125 C-6.11402501 19.1689389 -6.11402501 19.1689389 -4 18 C-3.57180431 13.36566128 -3.57180431 13.36566128 -5.1875 9.1875 C-16.60485367 1.70716484 -34.10467303 5.10575169 -46.734375 7.5234375 C-66.46830596 12.48916522 -83.25143776 28.83222565 -93.953125 45.3984375 C-102.7918074 60.36884772 -108.54905716 76.96089558 -111.625 94 C-111.82867187 95.08539063 -112.03234375 96.17078125 -112.2421875 97.2890625 C-113.58663449 104.51115595 -114.80014111 111.75271586 -116 119 C-114.95097252 118.99666908 -114.95097252 118.99666908 -113.88075256 118.99327087 C-107.30295079 118.9732672 -100.72515746 118.95802548 -94.14733219 118.94818783 C-90.76528187 118.94296025 -87.3832566 118.93586489 -84.0012207 118.92456055 C-80.11670223 118.91165733 -76.23219403 118.90677076 -72.34765625 118.90234375 C-71.12788589 118.89718246 -69.90811554 118.89202118 -68.65138245 118.88670349 C-66.96975258 118.88659019 -66.96975258 118.88659019 -65.25415039 118.88647461 C-63.76523033 118.88314369 -63.76523033 118.88314369 -62.24623108 118.87974548 C-60 119 -60 119 -59 120 C-59 124.62 -59 129.24 -59 134 C-79.13 134.33 -99.26 134.66 -120 135 C-121.32 140.28 -122.64 145.56 -124 151 C-124.95538632 154.77293188 -125.91255765 158.54528335 -126.875 162.31640625 C-127.12620605 163.3014061 -127.37741211 164.28640594 -127.63623047 165.30125427 C-128.16027551 167.35542983 -128.68452704 169.40955272 -129.20898438 171.46362305 C-129.99956952 174.56081356 -130.78887058 177.65832953 -131.578125 180.75585938 C-134.32412414 191.52080831 -137.10162775 202.2749571 -140 213 C-125.76170566 208.12220425 -113.23738844 201.95940629 -101.63671875 192.21484375 C-100 191 -100 191 -98 191 C-98 190.34 -98 189.68 -98 189 C-97.34 189 -96.68 189 -96 189 C-96 188.34 -96 187.68 -96 187 C-95.34 187 -94.68 187 -94 187 C-94 186.34 -94 185.68 -94 185 C-93.34 185 -92.68 185 -92 185 C-92 184.34 -92 183.68 -92 183 C-91.34 183 -90.68 183 -90 183 C-90 182.34 -90 181.68 -90 181 C-89.34 181 -88.68 181 -88 181 C-88 180.34 -88 179.68 -88 179 C-87.34 179 -86.68 179 -86 179 C-85.72293213 178.40977051 -85.44586426 177.81954102 -85.16040039 177.21142578 C-84.06768201 175.12898456 -82.90226521 173.445898 -81.43359375 171.6171875 C-80.94826172 171.00746094 -80.46292969 170.39773437 -79.96289062 169.76953125 C-79.45951172 169.14433594 -78.95613281 168.51914063 -78.4375 167.875 C-74.89475212 163.65242637 -74.89475212 163.65242637 -72 159 C-71.34 159 -70.68 159 -70 159 C-69.73501709 158.25959473 -69.47003418 157.51918945 -69.19702148 156.75634766 C-68.01163717 154.02679659 -66.7460214 152.17164257 -64.84765625 149.8984375 C-64.23599609 149.16109375 -63.62433594 148.42375 -62.99414062 147.6640625 C-62.03797852 146.53097656 -62.03797852 146.53097656 -61.0625 145.375 C-60.42892578 144.611875 -59.79535156 143.84875 -59.14257812 143.0625 C-53.24515423 135.99303287 -53.24515423 135.99303287 -51 134 C-50.34 134 -49.68 134 -49 134 C-49 133.34 -49 132.68 -49 132 C-48.34 132 -47.68 132 -47 132 C-47 131.34 -47 130.68 -47 130 C-33.34406544 119.96972692 -19.94200083 115.94349946 -3 118 C0.93485842 119.06372967 3.79459575 120.50549729 7 123 C7.66128906 123.49628906 8.32257813 123.99257812 9.00390625 124.50390625 C15.12760112 129.80940389 17.51391217 136.55004128 18.37890625 144.46875 C18.68267906 153.48394313 16.92299997 160.05338467 12.375 167.75 C5.1668467 174.57877681 -1.07153197 176.83271167 -10.87280273 176.64428711 C-18.81270683 176.19029908 -22.40435747 173.59564253 -27.8125 168.1875 C-32.8585581 160.83467249 -33.57430887 153.80740267 -34 145 C-39.97017797 146.34329004 -43.796548 149.74638747 -48 154 C-48.33 154.66 -48.66 155.32 -49 156 C-49.66 156 -50.32 156 -51 156 C-51.2693335 156.74169434 -51.53866699 157.48338867 -51.81616211 158.24755859 C-52.95470173 160.89468082 -54.16588587 162.78733096 -55.94140625 165.0390625 C-56.52124268 165.77946777 -57.1010791 166.51987305 -57.69848633 167.28271484 C-58.6211731 168.442146 -58.6211731 168.442146 -59.5625 169.625 C-60.18858154 170.42244629 -60.81466309 171.21989258 -61.4597168 172.04150391 C-65.67769309 177.39623592 -69.9847019 182.66425545 -74.42578125 187.8359375 C-76.06556308 190.0901289 -76.6275535 191.26893071 -77 194 C-76.40023472 196.38805629 -76.40023472 196.38805629 -75.3046875 198.8515625 C-74.91796875 199.78613281 -74.53125 200.72070312 -74.1328125 201.68359375 C-73.71773438 202.65425781 -73.30265625 203.62492188 -72.875 204.625 C-72.483125 205.57246094 -72.09125 206.51992188 -71.6875 207.49609375 C-69.38234849 213.00284459 -66.85877272 218.34505966 -64.15185547 223.6640625 C-62.4570649 227.10106041 -61.03530577 230.62658511 -59.625 234.1875 C-57.17375573 240.2526208 -54.57971567 246.2047561 -51.76831055 252.11279297 C-50.04978224 255.73069721 -48.38484923 259.36590652 -46.76953125 263.03125 C-40.38740439 278.82319162 -40.38740439 278.82319162 -30 292 C-25.00636229 293.29464681 -21.7432608 292.96671789 -17 291 C-17 290.34 -17 289.68 -17 289 C-16.34 289 -15.68 289 -15 289 C-15 288.34 -15 287.68 -15 287 C-14.34 287 -13.68 287 -13 287 C-13 286.34 -13 285.68 -13 285 C-12.34 285 -11.68 285 -11 285 C-11 284.34 -11 283.68 -11 283 C-10.34 283 -9.68 283 -9 283 C-8.64228516 281.98679687 -8.64228516 281.98679687 -8.27734375 280.953125 C-6.70016797 277.30681034 -4.70494521 274.08653825 -2.5625 270.75 C-2.16740234 270.11320312 -1.77230469 269.47640625 -1.36523438 268.8203125 C1.63995606 264.12001465 1.63995606 264.12001465 5 263 C7.26171875 263.99609375 7.26171875 263.99609375 9.6875 265.4375 C10.49574219 265.91058594 11.30398438 266.38367188 12.13671875 266.87109375 C12.75160156 267.24363281 13.36648438 267.61617188 14 268 C14.09662822 271.64167599 13.87620422 273.83390538 12 277 C11.34 277 10.68 277 10 277 C9.87496094 277.58910156 9.74992187 278.17820312 9.62109375 278.78515625 C7.82834236 285.17817537 2.77623478 290.76035132 -1.1875 296 C-1.84770142 296.8825647 -1.84770142 296.8825647 -2.52124023 297.78295898 C-3.63173673 299.22773433 -4.81080844 300.61927493 -6 302 C-6.66 302 -7.32 302 -8 302 C-8.66 303.32 -9.32 304.64 -10 306 C-10.66 306 -11.32 306 -12 306 C-12.34224609 306.86818359 -12.34224609 306.86818359 -12.69140625 307.75390625 C-17.18762433 315.4712955 -27.95603702 319.93201951 -36 323 C-36.63333252 323.25966553 -37.26666504 323.51933105 -37.91918945 323.78686523 C-44.2820783 326.19790702 -50.17812137 326.48429243 -56.9375 326.4375 C-57.95779297 326.45748047 -58.97808594 326.47746094 -60.02929688 326.49804688 C-69.69573238 326.49187812 -77.25159503 323.66956461 -85 318 C-85.99 317.34 -86.98 316.68 -88 316 C-88 315.34 -88 314.68 -88 314 C-88.66 314 -89.32 314 -90 314 C-90 313.34 -90 312.68 -90 312 C-90.66 312 -91.32 312 -92 312 C-96.88451138 305.51025014 -100.51860135 298.20852705 -103.76171875 290.79296875 C-104.10229813 290.01999954 -104.4428775 289.24703033 -104.79377747 288.45063782 C-108.80025058 279.28069948 -112.49891681 269.98864686 -116.1875 260.6875 C-116.87925076 258.95235172 -117.57130737 257.21732535 -118.26367188 255.48242188 C-120.18638552 250.65910956 -122.09627368 245.83083384 -124 241 C-124.27217346 240.3113385 -124.54434692 239.622677 -124.82476807 238.91314697 C-125.54984349 237.07514385 -126.26927401 235.23491666 -126.98828125 233.39453125 C-127.38184814 232.3888208 -127.77541504 231.38311035 -128.1809082 230.34692383 C-129 228 -129 228 -129 226 C-130.46373047 226.433125 -130.46373047 226.433125 -131.95703125 226.875 C-133.24212615 227.25021019 -134.52728581 227.62519862 -135.8125 228 C-137.70935547 228.556875 -137.70935547 228.556875 -139.64453125 229.125 C-143 230 -143 230 -146 230 C-146.10943436 230.54744873 -146.21886871 231.09489746 -146.33161926 231.65893555 C-147.49751404 237.22019471 -149.07128845 242.47680709 -151.01171875 247.8125 C-151.30303177 248.62509277 -151.59434479 249.43768555 -151.89448547 250.27490234 C-152.50962753 251.98678731 -153.12743904 253.6977152 -153.74780273 255.40771484 C-154.67421157 257.96334202 -155.59070281 260.52235634 -156.50585938 263.08203125 C-159.43023025 271.21844354 -162.45435743 279.30198589 -165.73828125 287.30078125 C-166.01451828 287.97419556 -166.29075531 288.64760986 -166.57536316 289.34143066 C-168.88963461 294.89634589 -171.50926823 300.26095507 -174.26171875 305.61328125 C-175.41838423 307.86682949 -176.54628105 310.13538223 -177.64453125 312.41796875 C-189.04219813 336.04076779 -204.83076075 359.00494492 -224 377 C-224.66 377 -225.32 377 -226 377 C-226 377.66 -226 378.32 -226 379 C-226.66 379 -227.32 379 -228 379 C-228 379.66 -228 380.32 -228 381 C-230.1171875 382.9453125 -230.1171875 382.9453125 -232.875 385.125 C-233.77992188 385.84945313 -234.68484375 386.57390625 -235.6171875 387.3203125 C-238 389 -238 389 -240 389 C-240 389.66 -240 390.32 -240 391 C-242.17485328 392.66616911 -244.33704545 394.18999567 -246.625 395.6875 C-247.30071045 396.13230713 -247.9764209 396.57711426 -248.67260742 397.03540039 C-264.65468635 407.36448645 -279.16304466 412.17430357 -298.125 412.25 C-300.02765625 412.2809375 -300.02765625 412.2809375 -301.96875 412.3125 C-315.97966867 412.37027698 -329.75518692 409.1047716 -340.375 399.375 C-350.09801117 388.78096908 -352.68942295 375.91833633 -352.3203125 362.01953125 C-351.86896598 354.04890334 -349.13316667 346.1598 -344 340 C-343.34 340 -342.68 340 -342 340 C-342 339.34 -342 338.68 -342 338 C-341.34 338 -340.68 338 -340 338 C-339.01 336.02 -339.01 336.02 -338 334 C-337.34 334 -336.68 334 -336 334 C-336 333.34 -336 332.68 -336 332 C-334.08588443 331.01585567 -332.1686033 330.03786651 -330.25 329.0625 C-328.64898437 328.24458984 -328.64898437 328.24458984 -327.015625 327.41015625 C-318.29298049 323.33130305 -311.02984958 325.02567707 -302.1484375 327.83203125 C-298.96338314 329.01358367 -296.00704808 330.42423457 -293 332 C-293 332.66 -293 333.32 -293 334 C-292.34 334 -291.68 334 -291 334 C-291 334.66 -291 335.32 -291 336 C-290.34 336 -289.68 336 -289 336 C-283.39352856 344.32961471 -283.06402081 352.33153413 -284 362 C-285.00808609 366.71503557 -286.82446877 370.7246082 -289 375 C-289.66 375 -290.32 375 -291 375 C-291.2475 375.61875 -291.495 376.2375 -291.75 376.875 C-293.20628639 379.35068687 -294.37812506 379.95125002 -297 381 C-297 381.66 -297 382.32 -297 383 C-297.91523438 383.33773438 -298.83046875 383.67546875 -299.7734375 384.0234375 C-300.96195313 384.46945312 -302.15046875 384.91546875 -303.375 385.375 C-305.15003906 386.03628906 -305.15003906 386.03628906 -306.9609375 386.7109375 C-310.04493446 387.7950342 -310.04493446 387.7950342 -312 390 C-312.07575878 393.04638827 -312.07575878 393.04638827 -311 396 C-305.41455429 398.99436349 -299.1507206 398.76328219 -293 398 C-290.53664263 396.91898537 -288.61237301 395.73116549 -286.48828125 394.09375 C-285 393 -285 393 -283 393 C-283 392.34 -283 391.68 -283 391 C-282.34 391 -281.68 391 -281 391 C-281 390.34 -281 389.68 -281 389 C-280.34 389 -279.68 389 -279 389 C-278.7525 388.43796875 -278.505 387.8759375 -278.25 387.296875 C-276.7877615 384.61001175 -275.00780925 382.55898064 -273 380.25 C-269.13954282 375.60870601 -265.81075267 370.81353675 -262.625 365.6875 C-262.20863281 365.0181543 -261.79226563 364.34880859 -261.36328125 363.65917969 C-259.03880734 359.8601413 -256.93137903 356.01851443 -255 352 C-254.34 352 -253.68 352 -253 352 C-252.87560547 351.42991211 -252.75121094 350.85982422 -252.62304688 350.27246094 C-251.9727555 347.90063016 -251.08874978 345.8598447 -250.03125 343.640625 C-249.62938477 342.78428467 -249.22751953 341.92794434 -248.81347656 341.0456543 C-248.3800293 340.12308838 -247.94658203 339.20052246 -247.5 338.25 C-242.50212497 327.43600578 -238.18179786 316.43469879 -234.15795898 305.22509766 C-233.30906488 302.86079425 -232.44824377 300.502532 -231.57836914 298.14599609 C-227.74426183 287.65535036 -224.70845585 277.06503892 -221.9375 266.25 C-221.50017531 264.56597175 -221.06242693 262.88205347 -220.62426758 261.19824219 C-218.17565162 251.75375218 -215.81963525 242.29141806 -213.61645508 232.78637695 C-212.24590036 226.90448899 -210.66854767 221.10139128 -209.0144043 215.29370117 C-206.68681747 207.04232939 -204.64933297 198.71937639 -202.59521484 190.39648438 C-201.09312417 184.3223487 -199.54568045 178.26929059 -197.88183594 172.23754883 C-194.33606908 159.33002581 -192.42154537 146.2940817 -191 133 C-191.66 133.33 -192.32 133.66 -193 134 C-195.90523966 134.09915494 -198.78600727 134.13981711 -201.69140625 134.1328125 C-202.55185043 134.13376923 -203.41229462 134.13472595 -204.29881287 134.13571167 C-206.11872429 134.13639265 -207.93863815 134.13454409 -209.75854492 134.13037109 C-212.55457979 134.12501517 -215.35045448 134.1303222 -218.14648438 134.13671875 C-219.91145869 134.13605808 -221.6764329 134.13477715 -223.44140625 134.1328125 C-224.28304825 134.13483673 -225.12469025 134.13686096 -225.99183655 134.13894653 C-231.88504528 134.11495472 -231.88504528 134.11495472 -233 133 C-233.07258946 130.81360547 -233.08373783 128.62499611 -233.0625 126.4375 C-233.05347656 125.23996094 -233.04445313 124.04242188 -233.03515625 122.80859375 C-233.02355469 121.88175781 -233.01195312 120.95492187 -233 120 C-222.17596587 117.45435219 -210.15023567 119.06832411 -199.125 119.5 C-197.85269531 119.54769531 -196.58039063 119.59539062 -195.26953125 119.64453125 C-192.17959133 119.76069441 -189.08976194 119.8792108 -186 120 C-185.88011719 118.85660156 -185.76023438 117.71320313 -185.63671875 116.53515625 C-185.07160683 112.04680662 -184.04080684 107.78602153 -182.8125 103.4375 C-182.59182861 102.6552002 -182.37115723 101.87290039 -182.14379883 101.06689453 C-176.54418215 81.77258441 -166.95708769 64.33270821 -157 47 C-156.34 47 -155.68 47 -155 47 C-154.6596875 45.97326172 -154.6596875 45.97326172 -154.3125 44.92578125 C-152.66571281 41.25481814 -150.46488786 38.34607773 -148 35.1875 C-147.32324219 34.2912793 -147.32324219 34.2912793 -146.6328125 33.37695312 C-145.47362397 31.87652419 -144.24186081 30.43275496 -143 29 C-142.34 29 -141.68 29 -141 29 C-140.731875 28.401875 -140.46375 27.80375 -140.1875 27.1875 C-139.00082594 25.00152146 -137.90400887 23.58667406 -136 22 C-135.34 22 -134.68 22 -134 22 C-133.67 21.01 -133.34 20.02 -133 19 C-130.86962669 17.13592336 -128.74661656 15.39985665 -126.5 13.6875 C-125.86143066 13.19548096 -125.22286133 12.70346191 -124.56494141 12.1965332 C-90.46117725 -13.88763213 -37.36140543 -28.02105407 0 0 Z " fill="#070707" transform="translate(409,65)"/>
<path d="M0 0 C0.66 0.33 1.32 0.66 2 1 C-4.64206642 10.12177122 -4.64206642 10.12177122 -8 13 C-8.66 13 -9.32 13 -10 13 C-8.48446596 9.52224821 -6.4226544 7.0442016 -3.875 4.25 C-3.15054687 3.45078125 -2.42609375 2.6515625 -1.6796875 1.828125 C-0.84824219 0.92320312 -0.84824219 0.92320312 0 0 Z " fill="#3A3A3B" transform="translate(358,199)"/>
<path d="M0 0 C0.66 0.33 1.32 0.66 2 1 C0.88200014 2.33920838 -0.24461897 3.67122556 -1.375 5 C-2.00148438 5.7425 -2.62796875 6.485 -3.2734375 7.25 C-4.12808594 8.11625 -4.12808594 8.11625 -5 9 C-5.66 9 -6.32 9 -7 9 C-7 9.66 -7 10.32 -7 11 C-7.99 11.33 -8.98 11.66 -10 12 C-10 11.34 -10 10.68 -10 10 C-9.34 10 -8.68 10 -8 10 C-7.731875 9.401875 -7.46375 8.80375 -7.1875 8.1875 C-6.00082594 6.00152146 -4.90400887 4.58667406 -3 3 C-2.34 3 -1.68 3 -1 3 C-0.67 2.01 -0.34 1.02 0 0 Z " fill="#656565" transform="translate(276,84)"/>
<path d="M0 0 C1 2 1 2 0.3125 4.9375 C-1.06969371 8.16261865 -1.98583 9.30452938 -5 11 C-5.66 11 -6.32 11 -7 11 C-5.22054913 6.95579349 -2.60470327 3.53921513 0 0 Z " fill="#565656" transform="translate(143,436)"/>
<path d="M0 0 C0.99 0.33 1.98 0.66 3 1 C0.03 4.96 0.03 4.96 -3 9 C-3.66 8.01 -4.32 7.02 -5 6 C-4.67 5.34 -4.34 4.68 -4 4 C-3.01 4 -2.02 4 -1 4 C-0.67 2.68 -0.34 1.36 0 0 Z " fill="#4E4E4E" transform="translate(355,222)"/>
<path d="M0 0 C0.66 0.33 1.32 0.66 2 1 C-1.61328125 5.6875 -1.61328125 5.6875 -3 7 C-5 7 -7 7 -9 7 C-6.03 4.69 -3.06 2.38 0 0 Z " fill="#464646" transform="translate(293,71)"/>
<path d="M0 0 C0.66 0.33 1.32 0.66 2 1 C0.41641358 4.16717283 -0.45263699 5.73268318 -3.6875 7.3125 C-4.450625 7.539375 -5.21375 7.76625 -6 8 C-4.55746343 4.63408134 -2.66735273 2.48952921 0 0 Z " fill="#8A8A8B" transform="translate(358,199)"/>
<path d="M0 0 C-0.33 0.99 -0.66 1.98 -1 3 C-1.99 3 -2.98 3 -4 3 C-4.33 3.99 -4.66 4.98 -5 6 C-5.99 6 -6.98 6 -8 6 C-8 5.34 -8 4.68 -8 4 C-2.58823529 0 -2.58823529 0 0 0 Z " fill="#616165" transform="translate(370,191)"/>
</svg>
